<?xml version="1.0" encoding="UTF-8" standalone="no"?>
<svg width="68px" height="71px" viewBox="0 0 68 71" version="1.1" xmlns="http://www.w3.org/2000/svg" xmlns:xlink="http://www.w3.org/1999/xlink" xmlns:sketch="http://www.bohemiancoding.com/sketch/ns">
    <!-- Generator: Sketch Beta 3.4 (15009) - http://www.bohemiancoding.com/sketch -->
    <title>BBB Logo</title>
    <desc>Created with Sketch Beta.</desc>
    <defs></defs>
    <g id="WireFrame-Storyboard" stroke="none" stroke-width="1" fill="none" fill-rule="evenodd" sketch:type="MSPage">
        <g id="Desktop-Landing" sketch:type="MSArtboardGroup" transform="translate(-230.000000, -720.000000)" fill="#424242">
            <g id="Landing-Page-Content" sketch:type="MSLayerGroup" transform="translate(112.000000, 241.000000)">
                <g id="Group" sketch:type="MSShapeGroup">
                    <g id="BBB-Logo" transform="translate(118.000000, 479.000000)">
                        <path d="M49.442081,33.5114391 C49.442081,30.9730627 47.1971131,30.9730627 46,30.9730627 L46,28 L59.993354,28 C66.2789595,28 67.1817442,31.698155 67.2518043,32.7859779 C67.3268142,33.9464945 66.8028869,35.904428 65.5307638,36.9199262 C66.8775161,37.7173432 68,39.1678967 68,41.3435424 C68,44.6070111 65.8300421,47 61.8640336,47 L46,47 L46,43.9542435 C48.4692362,43.9542435 49.442081,42.9387454 49.442081,41.1258303 L54.3063051,43.2291513 L59.7687049,43.2284133 C60.9669603,43.2284133 61.9382821,42.2870849 61.9382821,41.1258303 C61.9382821,39.9649446 60.9669603,39.0236162 59.7687049,39.0236162 L54.3063051,39.0236162 L54.3063051,35.2804428 L59.5813704,35.2804428 C60.589626,35.2804428 61.4071202,34.4885609 61.4071202,33.5114391 C61.4071202,32.5343173 60.589626,31.7420664 59.5813704,31.7420664 L54.3063051,31.7708487 L54.3063051,43.2291513 L49.442081,41.1258303 L49.442081,33.5114391" id="BBB"></path>
                        <path d="M26.4424618,33.5114391 C26.4424618,30.9730627 24.1974939,30.9730627 23,30.9730627 L23,28 L36.993354,28 C43.2789595,28 44.1817442,31.698155 44.2518043,32.7859779 C44.3268142,33.9464945 43.8028869,35.904428 42.5307638,36.9199262 C43.8775161,37.7173432 45,39.1678967 45,41.3435424 C45,44.6070111 42.8300421,47 38.8640336,47 L23,47 L23,43.9542435 C25.469617,43.9542435 26.4424618,42.9387454 26.4424618,41.1258303 L31.3063051,43.2291513 L36.7687049,43.2284133 C37.9669603,43.2284133 38.9382821,42.2870849 38.9382821,41.1258303 C38.9382821,39.9649446 37.9669603,39.0236162 36.7687049,39.0236162 L31.3063051,39.0236162 L31.3063051,35.2804428 L36.5817512,35.2804428 C37.5900067,35.2804428 38.4071202,34.4885609 38.4071202,33.5114391 C38.4071202,32.5343173 37.5900067,31.7420664 36.5817512,31.7420664 L31.3063051,31.7708487 L31.3063051,43.2291513 L26.4424618,41.1258303 L26.4424618,33.5114391" id="BBB"></path>
                        <path d="M3.44208103,33.5114391 C3.44208103,30.9730627 1.19711314,30.9730627 0,30.9730627 L0,28 L13.993354,28 C20.2793402,28 21.1817442,31.698155 21.2518043,32.7859779 C21.3268142,33.9464945 20.8028869,35.904428 19.5307638,36.9199262 C20.8778968,37.7173432 22,39.1678967 22,41.3435424 C22,44.6070111 19.8300421,47 15.8640336,47 L0,47 L0,43.9542435 C2.46961699,43.9542435 3.44208103,42.9387454 3.44208103,41.1258303 L8.30630506,43.2291513 L13.7687049,43.2284133 C14.9669603,43.2284133 15.9382821,42.2870849 15.9382821,41.1258303 C15.9382821,39.9649446 14.9669603,39.0236162 13.7687049,39.0236162 L8.30630506,39.0236162 L8.30630506,35.2804428 L13.5817512,35.2804428 C14.5900067,35.2804428 15.407501,34.4885609 15.407501,33.5114391 C15.407501,32.5343173 14.5900067,31.7420664 13.5817512,31.7420664 L8.30630506,31.7708487 L8.30630506,43.2291513 L3.44208103,41.1258303 L3.44208103,33.5114391" id="BBB"></path>
                        <path d="M39.0536907,52.8147674 L36.4500854,70 L31.549525,70 L28.9459196,52.8147674 L0,52.8147674 L0,50 L68,50 L68,52.8147674 L39.0536907,52.8147674" id="BBB"></path>
                        <path d="M43.497648,22.0238366 C42.9157746,21.5774688 42.9157746,20.3129496 43.6816027,19.7919979 C44.4474307,19.2710463 46.2094198,16.6666667 45.9794765,13.8392925 C45.749923,11.0119183 43.7583803,7.5151818 39.4689638,5.20838066 C38.243639,4.38985053 35.4094906,2.45521179 34.9499938,0.89273545 C34.4137193,2.67858495 35.4862683,4.38985053 37.4010333,5.95232687 C39.3157982,7.5151818 42.6858313,10.5655506 43.0689402,12.6489785 C43.4520491,14.7324065 42.9925523,17.70857 41.3841185,19.717414 C41.8432256,17.6343646 42.4562778,13.0207623 39.3157982,10.0449775 C36.1753187,7.06843548 32.65212,4.16685597 32.575732,0 C31.503183,1.7858495 31.7331263,3.9434828 33.2647824,6.17570003 C34.7968282,8.40791725 39.6989071,13.0953463 39.6989071,15.4763527 C39.6989071,17.8573592 39.3921862,20.3129496 37.5541989,22.0238366 L27.5204875,22.0238366 C25.3757793,20.3871549 23.6141799,18.0061484 23.8441232,15.4021474 C24.0736767,12.7977678 25.5542776,11.2962458 26.7546595,10.3421774 C27.5972652,9.67281511 31.1968518,6.47327851 30.2778582,3.9434828 C29.3588645,6.10111611 27.8268187,7.88696561 25.6821105,9.44944195 C23.6527636,10.928248 22.0057462,13.0953463 22.0057462,15.4763527 C21.9293582,17.4109915 22.6184086,19.5686248 23.8441232,20.6847334 C24.5335633,21.2798904 24.7471377,21.7262581 24.5635728,22.0238366 C23.9548078,22.0238366 23.4610143,22.503521 23.4610143,23.0952705 L23.4610143,23.9289446 C23.4610143,24.5206942 23.9548078,25 24.5635728,25 L43.497648,25 C44.1060234,25 44.6002066,24.5206942 44.6002066,23.9289446 L44.6002066,23.0952705 C44.6002066,22.503521 44.1060234,22.0238366 43.497648,22.0238366 L43.497648,22.0238366" id="BBB"></path>
                        <path d="M31,6 C30.6723721,7.23588357 28.7854859,9.27115187 27.5555249,10.5799085 C26.3247292,11.8882953 24.8485256,13.7785572 25.0125482,15.8866986 C25.1765708,17.99484 26.7349944,19.0857172 28.5396606,19.9579751 C29.0317285,20.1033514 29.687819,19.8854719 28.8677059,19.0857172 C28.0471754,18.2859626 26.8172144,17.1954553 26.899017,15.1598171 C26.981237,13.1241789 27.6373275,11.8882953 28.8677059,10.7252849 C30.0980842,9.56190448 30.9181974,7.74451569 31,6 C31,6 30.9181974,7.74451569 31,6" id="BBB"></path>
                        <path d="M31.2608225,20.8077205 C29.7487754,19.7259651 28.6343798,17.9227947 29.1118044,16.0480699 C29.589229,14.1729781 31.4989274,12.2255981 31.6584738,11 C31.9767569,12.0813885 31.1810492,13.884192 30.7036246,14.8940261 C30.2262,15.9038603 30.1464268,18.2835021 31.8176154,20.3028035 C32.29504,20.8796419 31.7378421,21.2403493 31.2608225,20.8077205 C31.2608225,20.8077205 31.7378421,21.2403493 31.2608225,20.8077205" id="BBB"></path>
                        <path d="M40.5039874,68.220481 C41.1941759,68.220481 41.7288545,68.7740525 41.7288545,69.4919825 C41.7288545,70.2259475 41.1941759,70.779519 40.5039874,70.779519 C39.8058241,70.779519 39.2711455,70.2259475 39.2711455,69.4919825 C39.2711455,68.7740525 39.8058241,68.220481 40.5039874,68.220481 L40.5039874,68 C39.6862011,68 39,68.6457726 39,69.4919825 C39,70.3542274 39.6862011,71 40.5039874,71 C41.3177864,71 42,70.3542274 42,69.4919825 C42,68.6457726 41.3177864,68 40.5039874,68 L40.5039874,68.220481" id="BBB"></path>
                        <path d="M39.2047072,69.2516116 L39.4759168,69.2516116 C39.6143952,69.2516116 39.7651888,69.2927844 39.7651888,69.5585361 C39.7651888,69.8741942 39.5993432,69.8879185 39.4187192,69.8879185 L39.2047072,69.8879185 L39.2047072,70.13953 L39.4217296,70.13953 L39.7802408,71 L40,71 L39.6234264,70.1166563 C39.819376,70.0850489 39.969896,69.933666 39.969896,69.5722603 C39.969896,69.187565 39.8223864,69 39.5090312,69 L39,69 L39,71 L39.2047072,71 L39.2047072,69.2516116" id="BBB"></path>
                    </g>
                </g>
            </g>
        </g>
    </g>
</svg>