<?xml version="1.0" encoding="UTF-8" standalone="no"?>
<svg width="8px" height="13px" viewBox="0 0 8 13" version="1.1" xmlns="http://www.w3.org/2000/svg" xmlns:xlink="http://www.w3.org/1999/xlink" xmlns:sketch="http://www.bohemiancoding.com/sketch/ns">
    <!-- Generator: Sketch 3.0.3 (7891) - http://www.bohemiancoding.com/sketch -->
    <title>Shape 4</title>
    <desc>Created with Sketch.</desc>
    <defs></defs>
    <g id="Page-1" stroke="none" stroke-width="1" fill="none" fill-rule="evenodd" sketch:type="MSPage">
        <path d="M6.5030403,4.532 C6.2090403,4.126 5.9110403,3.735 5.6230403,3.358 C5.1020403,2.673 4.6090403,2.027 4.1360403,1.293 L3.8680403,0.878 L3.6000403,1.293 C3.1270403,2.027 2.6340403,2.673 2.1130403,3.358 C1.8250403,3.736 1.5280403,4.126 1.2340403,4.532 C0.819040295,5.107 0.401040295,5.739 0.166040295,6.469 C-0.0589597049,7.167 -0.0549597049,7.889 0.176040295,8.558 C0.484040295,9.448 1.2090403,10.236 2.1140403,10.666 C2.6310403,10.91 3.2540403,11.047 3.8700403,11.051 C4.4860403,11.048 5.1090403,10.911 5.6260403,10.666 C6.5310403,10.237 7.2550403,9.449 7.5630403,8.558 C7.7930403,7.889 7.7960403,7.167 7.5710403,6.469 C7.3350403,5.739 6.9180403,5.107 6.5030403,4.532 Z" id="Shape-4" fill="#3FA9F5" sketch:type="MSShapeGroup"></path>
    </g>
</svg>