<?xml version="1.0" encoding="UTF-8" standalone="no"?>
<svg width="126px" height="126px" viewBox="0 0 126 126" version="1.1" xmlns="http://www.w3.org/2000/svg" xmlns:xlink="http://www.w3.org/1999/xlink" xmlns:sketch="http://www.bohemiancoding.com/sketch/ns">
    <!-- Generator: Sketch Beta 3.4 (15009) - http://www.bohemiancoding.com/sketch -->
    <title>five-stars</title>
    <desc>Created with Sketch Beta.</desc>
    <defs></defs>
    <g id="WireFrame-Storyboard" stroke="none" stroke-width="1" fill="none" fill-rule="evenodd" sketch:type="MSPage">
        <g id="Desktop-Landing" sketch:type="MSArtboardGroup" transform="translate(-303.000000, -1130.000000)">
            <g id="five-stars" sketch:type="MSLayerGroup" transform="translate(304.000000, 1131.000000)">
                <rect id="frame" stroke="#1485E0" stroke-width="2" sketch:type="MSShapeGroup" x="0" y="0" width="124" height="124" rx="12"></rect>
                <g transform="translate(12.000000, 34.000000)" id="star" fill="#1485E0" sketch:type="MSShapeGroup">
                    <path d="M47.5562516,41.225 C48.4562516,40.325 47.9562516,38.725 46.6562516,38.425 L39.2562516,37.025 C38.7562516,36.925 38.3562516,36.625 38.1562516,36.225 L34.4562516,29.825 C33.8562516,28.725 32.1562516,28.725 31.5562516,29.825 L27.8562516,36.225 C27.6562516,36.625 27.1562516,36.925 26.7562516,37.025 L19.3562516,38.425 C18.0562516,38.625 17.5562516,40.225 18.4562516,41.225 L23.5562516,46.525 C23.8562516,46.925 24.0562516,47.425 23.9562516,47.825 L23.0562516,55.025 C22.8562516,56.325 24.2562516,57.225 25.4562516,56.725 L32.3562516,53.625 C32.7562516,53.425 33.3562516,53.425 33.7562516,53.625 L40.6562516,56.725 C41.8562516,57.225 43.1562516,56.325 43.0562516,55.025 L42.1562516,47.825 C42.0562516,47.325 42.2562516,46.825 42.5562516,46.525 L47.5562516,41.225 L47.5562516,41.225 Z"></path>
                    <path d="M82.5562516,41.225 C83.4562516,40.325 82.9562516,38.725 81.6562516,38.425 L74.2562516,37.025 C73.7562516,36.925 73.3562516,36.625 73.1562516,36.225 L69.4562516,29.825 C68.8562516,28.725 67.1562516,28.725 66.5562516,29.825 L62.8562516,36.225 C62.6562516,36.625 62.1562516,36.925 61.7562516,37.025 L54.3562516,38.425 C53.0562516,38.625 52.5562516,40.225 53.4562516,41.225 L58.5562516,46.525 C58.8562516,46.925 59.0562516,47.425 58.9562516,47.825 L58.0562516,55.025 C57.8562516,56.325 59.2562516,57.225 60.4562516,56.725 L67.3562516,53.625 C67.7562516,53.425 68.3562516,53.425 68.7562516,53.625 L75.6562516,56.725 C76.8562516,57.225 78.1562516,56.325 78.0562516,55.025 L77.1562516,47.825 C77.0562516,47.325 77.2562516,46.825 77.5562516,46.525 L82.5562516,41.225 L82.5562516,41.225 Z"></path>
                    <path d="M29.5562516,12.225 C30.4562516,11.325 29.9562516,9.725 28.6562516,9.425 L21.2562516,8.025 C20.7562516,7.925 20.3562516,7.625 20.1562516,7.225 L16.4562516,0.825 C15.8562516,-0.275 14.1562516,-0.275 13.5562516,0.825 L9.85625162,7.225 C9.65625162,7.625 9.15625162,7.925 8.75625162,8.025 L1.35625162,9.425 C0.0562516159,9.625 -0.443748384,11.225 0.456251616,12.225 L5.55625162,17.525 C5.85625162,17.925 6.05625162,18.425 5.95625162,18.825 L5.05625162,26.025 C4.85625162,27.325 6.25625162,28.225 7.45625162,27.725 L14.3562516,24.625 C14.7562516,24.425 15.3562516,24.425 15.7562516,24.625 L22.6562516,27.725 C23.8562516,28.225 25.1562516,27.325 25.0562516,26.025 L24.1562516,18.825 C24.0562516,18.325 24.2562516,17.825 24.5562516,17.525 L29.5562516,12.225 L29.5562516,12.225 Z"></path>
                    <path d="M64.5562516,12.225 C65.4562516,11.325 64.9562516,9.725 63.6562516,9.425 L56.2562516,8.025 C55.7562516,7.925 55.3562516,7.625 55.1562516,7.225 L51.4562516,0.825 C50.8562516,-0.275 49.1562516,-0.275 48.5562516,0.825 L44.8562516,7.225 C44.6562516,7.625 44.1562516,7.925 43.7562516,8.025 L36.3562516,9.425 C35.0562516,9.625 34.5562516,11.225 35.4562516,12.225 L40.5562516,17.525 C40.8562516,17.925 41.0562516,18.425 40.9562516,18.825 L40.0562516,26.025 C39.8562516,27.325 41.2562516,28.225 42.4562516,27.725 L49.3562516,24.625 C49.7562516,24.425 50.3562516,24.425 50.7562516,24.625 L57.6562516,27.725 C58.8562516,28.225 60.1562516,27.325 60.0562516,26.025 L59.1562516,18.825 C59.0562516,18.325 59.2562516,17.825 59.5562516,17.525 L64.5562516,12.225 L64.5562516,12.225 Z"></path>
                    <path d="M99.5562516,12.225 C100.456252,11.325 99.9562516,9.725 98.6562516,9.425 L91.2562516,8.025 C90.7562516,7.925 90.3562516,7.625 90.1562516,7.225 L86.4562516,0.825 C85.8562516,-0.275 84.1562516,-0.275 83.5562516,0.825 L79.8562516,7.225 C79.6562516,7.625 79.1562516,7.925 78.7562516,8.025 L71.3562516,9.425 C70.0562516,9.625 69.5562516,11.225 70.4562516,12.225 L75.5562516,17.525 C75.8562516,17.925 76.0562516,18.425 75.9562516,18.825 L75.0562516,26.025 C74.8562516,27.325 76.2562516,28.225 77.4562516,27.725 L84.3562516,24.625 C84.7562516,24.425 85.3562516,24.425 85.7562516,24.625 L92.6562516,27.725 C93.8562516,28.225 95.1562516,27.325 95.0562516,26.025 L94.1562516,18.825 C94.0562516,18.325 94.2562516,17.825 94.5562516,17.525 L99.5562516,12.225 L99.5562516,12.225 Z"></path>
                </g>
            </g>
        </g>
    </g>
</svg>