<?xml version="1.0" encoding="UTF-8" standalone="no"?>
<svg width="180px" height="180px" viewBox="0 0 180 180" version="1.1" xmlns="http://www.w3.org/2000/svg" xmlns:xlink="http://www.w3.org/1999/xlink" xmlns:sketch="http://www.bohemiancoding.com/sketch/ns">
    <!-- Generator: Sketch Beta 3.4 (15009) - http://www.bohemiancoding.com/sketch -->
    <title>heating+air</title>
    <desc>Created with Sketch Beta.</desc>
    <defs>
        <linearGradient x1="7.70089803%" y1="38.8018638%" x2="92.3445361%" y2="38.8018638%" id="linearGradient-1">
            <stop stop-color="#7CDAFF" offset="0%"></stop>
            <stop stop-color="#46B3FF" offset="100%"></stop>
        </linearGradient>
        <linearGradient x1="100%" y1="50%" x2="11.893098%" y2="50%" id="linearGradient-2">
            <stop stop-color="#FF88AF" offset="0%"></stop>
            <stop stop-color="#FF5076" offset="100%"></stop>
        </linearGradient>
    </defs>
    <g id="WireFrame-Storyboard" stroke="none" stroke-width="1" fill="none" fill-rule="evenodd" sketch:type="MSPage">
        <g id="Landing-Page-v2-iPhone-6+" sketch:type="MSArtboardGroup" transform="translate(-221.000000, -492.000000)">
            <g id="heating+air" sketch:type="MSLayerGroup" transform="translate(221.000000, 492.000000)">
                <rect id="Rectangle-159-Copy-4" fill="#FCFCFC" sketch:type="MSShapeGroup" x="0" y="0" width="180" height="180" rx="10.4046243"></rect>
                <g id="Wind-+-Wind-Copy" transform="translate(31.213873, 35.375723)" sketch:type="MSShapeGroup">
                    <path d="M84.7855533,74.3899568 L84.7855533,74.414398 L81.6653217,74.414398 L55.143353,74.414398 L52.0231214,74.414398 L52.0231214,68.1281625 L55.143353,68.1281625 L81.6653217,68.1281625 L84.0806176,68.1281625 C86.2018155,68.1281625 87.9213865,66.3959789 87.9213865,64.2592221 C87.9213865,62.1224653 86.2018155,60.3902817 84.0806172,60.3902817 C82.7106406,60.3902817 81.6347096,60.841894 80.6314022,61.7032259 C79.7223345,62.4836537 78.4635802,63.9763461 78.4635802,63.9763461 L75.4248585,59.0502117 C77.1857566,56.0874451 80.4032496,54.1040462 84.0806172,54.1040462 C89.6483282,54.1040462 94.1618497,58.6506733 94.1618497,64.2592221 C94.1618497,69.6290553 90.0243678,74.0254398 84.7855533,74.3899568 L84.7855533,74.3899568 Z M108.19551,83.7639653 L108.19551,83.7884065 L105.075129,83.7884065 L78.5518935,83.7884065 L69.1907514,83.7884065 L69.1907514,77.502171 L78.5518935,77.502171 L105.075129,77.502171 L107.490541,77.502171 C109.61184,77.502171 111.331493,75.7699874 111.331493,73.6332306 C111.331493,71.4964738 109.61184,69.7642902 107.49054,69.7642902 C106.120498,69.7642902 105.044516,70.2159025 104.04116,71.0772344 C103.132049,71.8576622 101.873235,73.3503546 101.873235,73.3503546 L98.834368,68.4242202 C100.59535,65.4614536 103.812997,63.4780547 107.49054,63.4780547 C113.058517,63.4780547 117.572254,68.0246818 117.572254,73.6332306 C117.572254,79.0030638 113.434575,83.3994483 108.19551,83.7639653 L108.19551,83.7639653 Z M94.1497152,88.4998519 L94.1497152,88.4754107 L91.0294836,88.4754107 L64.5075149,88.4754107 L61.3872832,88.4754107 L61.3872832,94.7616462 L64.5075149,94.7616462 L91.0294836,94.7616462 L93.4447794,94.7616462 C95.5659774,94.7616462 97.2855483,96.4938298 97.2855483,98.6305866 C97.2855483,100.767343 95.5659773,102.499527 93.444779,102.499527 C92.0748025,102.499527 90.9988714,102.047915 89.9955641,101.186583 C89.0864963,100.406155 87.827742,98.9134626 87.827742,98.9134626 L84.7890204,103.839597 C86.5499185,106.802364 89.7674115,108.785762 93.444779,108.785762 C99.01249,108.785762 103.526012,104.239135 103.526012,98.6305866 C103.526012,93.2607534 99.3885296,88.8643689 94.1497152,88.4998519 L94.1497152,88.4998519 Z" id="cold" fill="url(#linearGradient-1)"></path>
                    <path d="M32.786701,20.2859105 L32.786701,20.3103517 L35.9069326,20.3103517 L62.4289013,20.3103517 L65.5491329,20.3103517 L65.5491329,14.0241163 L62.4289013,14.0241163 L35.9069326,14.0241163 L33.4916367,14.0241163 C31.3704388,14.0241163 29.6508679,12.2919326 29.6508679,10.1551759 C29.6508679,8.0184191 31.3704388,6.28623548 33.4916372,6.28623548 C34.8616137,6.28623548 35.9375448,6.73784778 36.9408521,7.59917962 C37.8499199,8.37960748 39.1086742,9.87229987 39.1086742,9.87229987 L42.1473958,4.94616542 C40.3864977,1.98339882 37.1690047,0 33.4916372,0 C27.9239262,0 23.4104046,4.54662711 23.4104046,10.1551759 C23.4104046,15.5250091 27.5478866,19.9213936 32.786701,20.2859105 L32.786701,20.2859105 Z M9.37674432,29.659919 L9.37674432,29.6843602 L12.497125,29.6843602 L39.0203608,29.6843602 L48.3815029,29.6843602 L48.3815029,23.3981248 L39.0203608,23.3981248 L12.497125,23.3981248 L10.0817137,23.3981248 C7.9604145,23.3981247 6.24076137,21.6659411 6.24076137,19.5291844 C6.24076137,17.3924276 7.96041451,15.660244 10.0817142,15.660244 C11.4517562,15.660244 12.5277386,16.1118563 13.5310939,16.9731881 C14.4402051,17.753616 15.6990195,19.2463084 15.6990195,19.2463084 L18.7378864,14.3201739 C16.9769041,11.3574073 13.7592574,9.3740085 10.0817142,9.3740085 C4.51373718,9.3740085 0,13.9206356 0,19.5291844 C0,24.8990176 4.1376796,29.2954021 9.37674432,29.659919 L9.37674432,29.659919 Z M23.4225391,34.3958057 L23.4225391,34.3713645 L26.5427708,34.3713645 L53.0647395,34.3713645 L56.1849711,34.3713645 L56.1849711,40.6576 L53.0647395,40.6576 L26.5427708,40.6576 L24.1274749,40.6576 C22.006277,40.6576 20.286706,42.3897836 20.286706,44.5265404 C20.286706,46.6632971 22.006277,48.3954808 24.1274753,48.3954808 C25.4974519,48.3954808 26.5733829,47.9438685 27.5766903,47.0825366 C28.485758,46.3021088 29.7445123,44.8094164 29.7445123,44.8094164 L32.783234,49.7355508 C31.0223359,52.6983174 27.8048429,54.6817162 24.1274753,54.6817162 C18.5597643,54.6817162 14.0462428,50.1350891 14.0462428,44.5265404 C14.0462428,39.1567072 18.1837247,34.7603227 23.4225391,34.3958057 L23.4225391,34.3958057 Z" id="warm" fill="url(#linearGradient-2)"></path>
                </g>
                <g id="hamburger-menu" transform="translate(148.000000, 150.000000)" fill="#3FAAF5" sketch:type="MSShapeGroup">
                    <rect id="hamburger" x="0" y="0" width="23" height="5" rx="4"></rect>
                    <rect id="hamburger" x="0" y="8" width="23" height="5" rx="4"></rect>
                    <rect id="hamburger" x="0" y="16" width="23" height="5" rx="4"></rect>
                </g>
            </g>
        </g>
    </g>
</svg>