<?xml version="1.0" encoding="UTF-8" standalone="no"?>
<svg width="173px" height="173px" viewBox="0 0 173 173" version="1.1" xmlns="http://www.w3.org/2000/svg" xmlns:xlink="http://www.w3.org/1999/xlink" xmlns:sketch="http://www.bohemiancoding.com/sketch/ns">
    <!-- Generator: Sketch Beta 3.4 (15009) - http://www.bohemiancoding.com/sketch -->
    <title>heating+air</title>
    <desc>Created with Sketch Beta.</desc>
    <defs>
        <linearGradient x1="7.70089803%" y1="38.8018638%" x2="92.3445361%" y2="38.8018638%" id="linearGradient-1">
            <stop stop-color="#7CDAFF" offset="0%"></stop>
            <stop stop-color="#46B3FF" offset="100%"></stop>
        </linearGradient>
        <linearGradient x1="100%" y1="50%" x2="11.893098%" y2="50%" id="linearGradient-2">
            <stop stop-color="#FF88AF" offset="0%"></stop>
            <stop stop-color="#FF5076" offset="100%"></stop>
        </linearGradient>
    </defs>
    <g id="WireFrame-Storyboard" stroke="none" stroke-width="1" fill="none" fill-rule="evenodd" sketch:type="MSPage">
        <g id="Landing-Page-v2" sketch:type="MSArtboardGroup" transform="translate(-966.000000, -231.000000)">
            <g id="heating+air" sketch:type="MSLayerGroup" transform="translate(966.000000, 231.000000)">
                <rect id="Rectangle-159-Copy-4" fill="#FCFCFC" sketch:type="MSShapeGroup" x="0" y="0" width="173" height="173" rx="10"></rect>
                <g id="Wind-+-Wind-Copy" transform="translate(30.000000, 34.000000)" sketch:type="MSShapeGroup">
                    <path d="M81.4883374,71.497014 L81.4883374,71.5205047 L78.4894481,71.5205047 L52.9988893,71.5205047 L50,71.5205047 L50,65.478734 L52.9988893,65.478734 L78.4894481,65.478734 L80.8108158,65.478734 C82.8495227,65.478734 84.5022215,63.813913 84.5022215,61.7602524 C84.5022215,59.7065917 82.8495227,58.0417708 80.8108154,58.0417708 C79.4941157,58.0417708 78.4600264,58.4758204 77.4957366,59.303656 C76.6220215,60.0537339 75.4122187,61.4883771 75.4122187,61.4883771 L72.4916696,56.7538145 C74.1840883,53.9062666 77.2764566,52 80.8108154,52 C86.1620043,52 90.5,56.3698138 90.5,61.7602524 C90.5,66.9212587 86.5234201,71.1466727 81.4883374,71.497014 L81.4883374,71.497014 Z M103.987907,80.5064777 L103.987907,80.5299685 L100.988874,80.5299685 L75.4970976,80.5299685 L66.5,80.5299685 L66.5,74.4881977 L75.4970976,74.4881977 L100.988874,74.4881977 L103.310353,74.4881977 C105.349157,74.4881977 107.001935,72.8233768 107.001935,70.7697161 C107.001935,68.7160554 105.349157,67.0512345 103.310352,67.0512345 C101.99359,67.0512345 100.959451,67.4852841 99.9951153,68.3131197 C99.1213584,69.0631976 97.9114979,70.4978408 97.9114979,70.4978408 L94.9908092,65.7632783 C96.6833088,62.9157304 99.7758248,61.0094637 103.310352,61.0094637 C108.661797,61.0094637 113,65.3792776 113,70.7697161 C113,75.9307224 109.02323,80.1561364 103.987907,80.5064777 L103.987907,80.5064777 Z M90.4883374,85.058191 L90.4883374,85.0347003 L87.4894481,85.0347003 L61.9988893,85.0347003 L59,85.0347003 L59,91.0764711 L61.9988893,91.0764711 L87.4894481,91.0764711 L89.8108158,91.0764711 C91.8495227,91.0764711 93.5022215,92.741292 93.5022215,94.7949527 C93.5022215,96.8486134 91.8495227,98.5134343 89.8108154,98.5134343 C88.4941157,98.5134343 87.4600264,98.0793847 86.4957366,97.2515491 C85.6220215,96.5014712 84.4122187,95.066828 84.4122187,95.066828 L81.4916696,99.8013905 C83.1840883,102.648938 86.2764566,104.555205 89.8108154,104.555205 C95.1620043,104.555205 99.5,100.185391 99.5,94.7949527 C99.5,89.6339463 95.5234201,85.4085323 90.4883374,85.058191 L90.4883374,85.058191 Z" id="cold" fill="url(#linearGradient-1)"></path>
                    <path d="M31.5116626,19.497014 L31.5116626,19.5205047 L34.5105519,19.5205047 L60.0011107,19.5205047 L63,19.5205047 L63,13.478734 L60.0011107,13.478734 L34.5105519,13.478734 L32.1891842,13.478734 C30.1504773,13.478734 28.4977785,11.813913 28.4977785,9.76025237 C28.4977785,7.70659169 30.1504773,6.04177077 32.1891846,6.04177077 C33.5058843,6.04177077 34.5399736,6.47582037 35.5042634,7.30365597 C36.3779785,8.05373386 37.5877813,9.48837709 37.5877813,9.48837709 L40.5083304,4.75381454 C38.8159117,1.90626665 35.7235434,0 32.1891846,0 C26.8379957,0 22.5,4.36981383 22.5,9.76025237 C22.5,14.9212587 26.4765799,19.1466727 31.5116626,19.497014 L31.5116626,19.497014 Z M9.01209315,28.5064777 L9.01209315,28.5299685 L12.0111257,28.5299685 L37.5029024,28.5299685 L46.5,28.5299685 L46.5,22.4881977 L37.5029024,22.4881977 L12.0111257,22.4881977 L9.6896471,22.4881977 C7.65084283,22.4881977 5.9980651,20.8233768 5.9980651,18.7697161 C5.9980651,16.7160554 7.65084284,15.0512345 9.68964751,15.0512345 C11.0064101,15.0512345 12.0405488,15.4852841 13.0048847,16.3131197 C13.8786416,17.0631976 15.0885021,18.4978408 15.0885021,18.4978408 L18.0091908,13.7632783 C16.3166912,10.9157304 13.2241752,9.00946372 9.68964751,9.00946372 C4.33820296,9.00946372 0,13.3792776 0,18.7697161 C0,23.9307224 3.97676984,28.1561364 9.01209315,28.5064777 L9.01209315,28.5064777 Z M22.5116626,33.058191 L22.5116626,33.0347003 L25.5105519,33.0347003 L51.0011107,33.0347003 L54,33.0347003 L54,39.0764711 L51.0011107,39.0764711 L25.5105519,39.0764711 L23.1891842,39.0764711 C21.1504773,39.0764711 19.4977785,40.741292 19.4977785,42.7949527 C19.4977785,44.8486134 21.1504773,46.5134343 23.1891846,46.5134343 C24.5058843,46.5134343 25.5399736,46.0793847 26.5042634,45.2515491 C27.3779785,44.5014712 28.5877813,43.066828 28.5877813,43.066828 L31.5083304,47.8013905 C29.8159117,50.6489384 26.7235434,52.555205 23.1891846,52.555205 C17.8379957,52.555205 13.5,48.1853912 13.5,42.7949527 C13.5,37.6339463 17.4765799,33.4085323 22.5116626,33.058191 L22.5116626,33.058191 Z" id="warm" fill="url(#linearGradient-2)"></path>
                </g>
            </g>
        </g>
    </g>
</svg>