<?xml version="1.0" encoding="UTF-8" standalone="no"?>
<svg width="267px" height="119px" viewBox="0 0 267 119" version="1.1" xmlns="http://www.w3.org/2000/svg" xmlns:xlink="http://www.w3.org/1999/xlink" xmlns:sketch="http://www.bohemiancoding.com/sketch/ns">
    <!-- Generator: Sketch Beta 3.4 (15009) - http://www.bohemiancoding.com/sketch -->
    <title>logo</title>
    <desc>Created with Sketch Beta.</desc>
    <defs>
        <linearGradient x1="50%" y1="0%" x2="50%" y2="100%" id="linearGradient-1">
            <stop stop-color="#529DF3" offset="0%"></stop>
            <stop stop-color="#0F6EDC" offset="100%"></stop>
        </linearGradient>
    </defs>
    <g id="WireFrame-Storyboard" stroke="none" stroke-width="1" fill="none" fill-rule="evenodd" sketch:type="MSPage">
        <g id="Desktop-Landing" sketch:type="MSArtboardGroup" transform="translate(-37.000000, -18.000000)">
            <g id=".header" sketch:type="MSLayerGroup">
                <g id="logo" sketch:type="MSShapeGroup">
                    <g transform="translate(37.000000, 18.000000)">
                        <path d="M0.965097561,74.446 L0.965097561,118 L10.5420976,118 L10.5420976,100.005 L32.4756221,100.005 L32.4756221,92.563 L10.5420976,92.563 L10.5420976,82.498 L35.2816221,82.498 L35.2816221,74.446 L0.965097561,74.446 Z" id="Type-something-Copy" fill="#0F6EDC"></path>
                        <path d="M10.5420976,20.942 L10.5420976,7.888 L17.9840976,7.888 C19.0821031,7.888 20.1394258,7.96933252 21.1560976,8.132 C22.1727693,8.29466748 23.067427,8.60983099 23.8400976,9.0775 C24.6127681,9.545169 25.2329286,10.2059957 25.7005976,11.06 C26.1682666,11.9140043 26.4020976,13.0323264 26.4020976,14.415 C26.4020976,15.7976736 26.1682666,16.9159957 25.7005976,17.77 C25.2329286,18.6240043 24.6127681,19.284831 23.8400976,19.7525 C23.067427,20.220169 22.1727693,20.5353325 21.1560976,20.698 C20.1394258,20.8606675 19.0821031,20.942 17.9840976,20.942 L10.5420976,20.942 Z M0.965097561,0.446 L0.965097561,44 L10.5420976,44 L10.5420976,28.384 L20.6070976,28.384 C23.3317779,28.384 25.6497547,27.987504 27.5610976,27.1945 C29.4724405,26.401496 31.0279249,25.3543398 32.2275976,24.053 C33.4272702,22.7516602 34.3015948,21.2571751 34.8505976,19.5695 C35.3996003,17.8818249 35.6740976,16.1636754 35.6740976,14.415 C35.6740976,12.6256577 35.3996003,10.8973417 34.8505976,9.23 C34.3015948,7.56265833 33.4272702,6.07833984 32.2275976,4.777 C31.0279249,3.47566016 29.4724405,2.42850396 27.5610976,1.6355 C25.6497547,0.842496035 23.3317779,0.446 20.6070976,0.446 L0.965097561,0.446 Z" id="Type-something-Copy-2" fill="#519DF4"></path>
                        <path d="M40.2940976,0.446 L40.2940976,118 L48.9560976,118 L48.9560976,0.446 L40.2940976,0.446 Z" id="Path" fill="url(#linearGradient-1)"></path>
                        <path d="M85.3730976,44 L85.3730976,12.463 L76.7110976,12.463 L76.7110976,28.994 C76.7110976,32.2066827 76.1824362,34.514493 75.1250976,35.9175 C74.0677589,37.320507 72.359776,38.022 70.0010976,38.022 C67.9270872,38.022 66.483435,37.3815064 65.6700976,36.1005 C64.8567602,34.8194936 64.4500976,32.8776797 64.4500976,30.275 L64.4500976,12.463 L55.7880976,12.463 L55.7880976,31.861 C55.7880976,33.8130098 55.9609292,35.5921586 56.3065976,37.1985 C56.652266,38.8048414 57.2520933,40.1671611 58.1060976,41.2855 C58.9601018,42.4038389 60.1292568,43.2679969 61.6135976,43.878 C63.0979383,44.488003 64.999086,44.793 67.3170976,44.793 C69.1471067,44.793 70.9364222,44.3863374 72.6850976,43.573 C74.433773,42.7596626 75.8570921,41.4380091 76.9550976,39.608 L77.1380976,39.608 L77.1380976,44 L85.3730976,44 Z" id="Path" fill="#519DF4"></path>
                        <path d="M92.2050976,12.463 L92.2050976,44 L100.867098,44 L100.867098,25.7 C100.867098,24.1546589 101.090762,22.9041714 101.538098,21.9485 C101.985433,20.9928286 102.524261,20.2608359 103.154598,19.7525 C103.784934,19.2441641 104.435594,18.8985009 105.106598,18.7155 C105.777601,18.5324991 106.316429,18.441 106.723098,18.441 C108.105771,18.441 109.152927,18.674831 109.864598,19.1425 C110.576268,19.610169 111.084596,20.2303295 111.389598,21.003 C111.694599,21.7756705 111.867431,22.6194954 111.908098,23.5345 C111.948764,24.4495046 111.969098,25.374662 111.969098,26.31 L111.969098,44 L120.631098,44 L120.631098,26.432 C120.631098,25.4559951 120.702264,24.4901714 120.844598,23.5345 C120.986932,22.5788286 121.271595,21.7248371 121.698598,20.9725 C122.1256,20.2201629 122.71526,19.610169 123.467598,19.1425 C124.219935,18.674831 125.206091,18.441 126.426098,18.441 C127.646104,18.441 128.611927,18.6443313 129.323598,19.051 C130.035268,19.4576687 130.574096,20.0066632 130.940098,20.698 C131.306099,21.3893368 131.529764,22.202662 131.611098,23.138 C131.692431,24.073338 131.733098,25.0696614 131.733098,26.127 L131.733098,44 L140.395098,44 L140.395098,22.894 C140.395098,20.8606565 140.110434,19.1221739 139.541098,17.6785 C138.971761,16.2348261 138.178769,15.0656711 137.162098,14.171 C136.145426,13.2763289 134.925438,12.6256687 133.502098,12.219 C132.078757,11.8123313 130.533439,11.609 128.866098,11.609 C126.670087,11.609 124.768939,12.1376614 123.162598,13.195 C121.556256,14.2523386 120.285436,15.4723264 119.350098,16.855 C118.496093,14.9029902 117.245606,13.5406705 115.598598,12.768 C113.951589,11.9953295 112.131774,11.609 110.139098,11.609 C108.065087,11.609 106.224939,12.0563289 104.618598,12.951 C103.012256,13.8456711 101.63977,15.1063252 100.501098,16.733 L100.379098,16.733 L100.379098,12.463 L92.2050976,12.463 Z" id="Path" fill="#519DF4"></path>
                        <path d="M147.227098,0.446 L147.227098,44 L155.462098,44 L155.462098,39.974 L155.584098,39.974 C156.519436,41.7226754 157.902088,42.9629963 159.732098,43.695 C161.562107,44.4270037 163.636086,44.793 165.954098,44.793 C167.540105,44.793 169.105757,44.4676699 170.651098,43.817 C172.196439,43.1663301 173.589258,42.1700067 174.829598,40.828 C176.069937,39.4859933 177.076427,37.7678438 177.849098,35.6735 C178.621768,33.5791562 179.008098,31.0883478 179.008098,28.201 C179.008098,25.3136522 178.621768,22.8228438 177.849098,20.7285 C177.076427,18.6341562 176.069937,16.9160067 174.829598,15.574 C173.589258,14.2319933 172.196439,13.2356699 170.651098,12.585 C169.105757,11.9343301 167.540105,11.609 165.954098,11.609 C164.002088,11.609 162.121273,11.9851629 160.311598,12.7375 C158.501922,13.4898371 157.068436,14.6793252 156.011098,16.306 L155.889098,16.306 L155.889098,0.446 L147.227098,0.446 Z M170.346098,28.262 C170.346098,29.5633398 170.203766,30.8239939 169.919098,32.044 C169.634429,33.2640061 169.187101,34.341662 168.577098,35.277 C167.967095,36.212338 167.204602,36.9544973 166.289598,37.5035 C165.374593,38.0525027 164.266437,38.327 162.965098,38.327 C161.704425,38.327 160.606436,38.0525027 159.671098,37.5035 C158.73576,36.9544973 157.963101,36.212338 157.353098,35.277 C156.743095,34.341662 156.295766,33.2640061 156.011098,32.044 C155.726429,30.8239939 155.584098,29.5633398 155.584098,28.262 C155.584098,26.9199933 155.726429,25.6390061 156.011098,24.419 C156.295766,23.1989939 156.743095,22.121338 157.353098,21.186 C157.963101,20.250662 158.73576,19.5085027 159.671098,18.9595 C160.606436,18.4104973 161.704425,18.136 162.965098,18.136 C164.266437,18.136 165.374593,18.4104973 166.289598,18.9595 C167.204602,19.5085027 167.967095,20.250662 168.577098,21.186 C169.187101,22.121338 169.634429,23.1989939 169.919098,24.419 C170.203766,25.6390061 170.346098,26.9199933 170.346098,28.262 Z" id="Path" fill="#519DF4"></path>
                        <path d="M193.404098,7.583 L193.404098,0.446 L184.742098,0.446 L184.742098,7.583 L193.404098,7.583 Z" id="Path" fill="#0F6EDC"></path>
                        <path d="M184.742098,12.463 L184.742098,44 L193.404098,44 L193.404098,12.463 L184.742098,12.463 Z" id="Path" fill="#519DF4"></path>
                        <path d="M200.236098,12.463 L200.236098,44 L208.898098,44 L208.898098,27.469 C208.898098,24.2563173 209.426759,21.948507 210.484098,20.5455 C211.541436,19.142493 213.249419,18.441 215.608098,18.441 C217.682108,18.441 219.12576,19.0814936 219.939098,20.3625 C220.752435,21.6435064 221.159098,23.5853203 221.159098,26.188 L221.159098,44 L229.821098,44 L229.821098,24.602 C229.821098,22.6499902 229.648266,20.8708414 229.302598,19.2645 C228.956929,17.6581586 228.357102,16.2958389 227.503098,15.1775 C226.649093,14.0591611 225.479938,13.1848365 223.995598,12.5545 C222.511257,11.9241635 220.610109,11.609 218.292098,11.609 C216.462088,11.609 214.672773,12.0258292 212.924098,12.8595 C211.175422,13.6931708 209.752103,15.0249908 208.654098,16.855 L208.471098,16.855 L208.471098,12.463 L200.236098,12.463 Z" id="Path" fill="#519DF4"></path>
                        <path d="M266.726098,41.987 L266.726098,12.463 L258.491098,12.463 L258.491098,16.672 L258.369098,16.672 C257.311759,14.8419908 256.000272,13.5406705 254.434598,12.768 C252.868923,11.9953295 251.049108,11.609 248.975098,11.609 C246.779087,11.609 244.837273,12.0359957 243.149598,12.89 C241.461922,13.7440043 240.04877,14.8928261 238.910098,16.3365 C237.771425,17.7801739 236.907267,19.4474905 236.317598,21.3385 C235.727928,23.2295095 235.433098,25.1916565 235.433098,27.225 C235.433098,29.3803441 235.687262,31.4238237 236.195598,33.3555 C236.703933,35.2871763 237.507092,36.9748261 238.605098,38.4185 C239.703103,39.8621739 241.106089,41.0008292 242.814098,41.8345 C244.522106,42.6681708 246.555419,43.085 248.914098,43.085 C250.82544,43.085 252.645256,42.688504 254.373598,41.8955 C256.10194,41.102496 257.43376,39.8723417 258.369098,38.205 L258.491098,38.205 L258.491098,42.353 C258.531764,44.5896778 257.992936,46.4399927 256.874598,47.904 C255.756259,49.3680073 253.97711,50.1 251.537098,50.1 C249.991757,50.1 248.629437,49.7848365 247.450098,49.1545 C246.270758,48.5241635 245.477766,47.3956748 245.071098,45.769 L236.470098,45.769 C236.592098,47.5583423 237.09026,49.0934936 237.964598,50.3745 C238.838935,51.6555064 239.936924,52.7026626 241.258598,53.516 C242.580271,54.3293374 244.044256,54.9291647 245.650598,55.3155 C247.256939,55.7018353 248.832757,55.895 250.378098,55.895 C253.997449,55.895 256.884753,55.4070049 259.040098,54.431 C261.195442,53.4549951 262.842425,52.265507 263.981098,50.8625 C265.11977,49.459493 265.861929,47.9446748 266.207598,46.318 C266.553266,44.6913252 266.726098,43.247673 266.726098,41.987 Z M251.110098,36.558 C249.768091,36.558 248.649769,36.2733362 247.755098,35.704 C246.860426,35.1346638 246.1386,34.4026711 245.589598,33.508 C245.040595,32.6133289 244.654265,31.6068389 244.430598,30.4885 C244.20693,29.3701611 244.095098,28.2416724 244.095098,27.103 C244.095098,25.9236608 244.227263,24.7951721 244.491598,23.7175 C244.755932,22.6398279 245.182928,21.6841708 245.772598,20.8505 C246.362267,20.0168292 247.09426,19.3560024 247.968598,18.868 C248.842935,18.3799976 249.890091,18.136 251.110098,18.136 C252.533438,18.136 253.71276,18.4003307 254.648098,18.929 C255.583436,19.4576693 256.335761,20.1693289 256.905098,21.064 C257.474434,21.9586711 257.881096,22.9854942 258.125098,24.1445 C258.369099,25.3035058 258.491098,26.5336602 258.491098,27.835 C258.491098,28.9736724 258.338599,30.0614948 258.033598,31.0985 C257.728596,32.1355052 257.271101,33.0606626 256.661098,33.874 C256.051095,34.6873374 255.278436,35.3379976 254.343098,35.826 C253.40776,36.3140024 252.330104,36.558 251.110098,36.558 Z" id="Path" fill="#519DF4"></path>
                        <path d="M55.056,102.262 C55.056,104.783346 55.4423295,107.060656 56.215,109.094 C56.9876705,111.127343 58.0856595,112.865826 59.509,114.3095 C60.9323404,115.753174 62.6403234,116.861329 64.633,117.634 C66.6256766,118.406671 68.8623209,118.793 71.343,118.793 C73.8236791,118.793 76.0704899,118.406671 78.0835,117.634 C80.0965101,116.861329 81.8146595,115.753174 83.238,114.3095 C84.6613404,112.865826 85.7593295,111.127343 86.532,109.094 C87.3046705,107.060656 87.691,104.783346 87.691,102.262 C87.691,99.7406541 87.3046705,97.4531769 86.532,95.3995 C85.7593295,93.3458231 84.6613404,91.5971739 83.238,90.1535 C81.8146595,88.7098261 80.0965101,87.591504 78.0835,86.7985 C76.0704899,86.005496 73.8236791,85.609 71.343,85.609 C68.8623209,85.609 66.6256766,86.005496 64.633,86.7985 C62.6403234,87.591504 60.9323404,88.7098261 59.509,90.1535 C58.0856595,91.5971739 56.9876705,93.3458231 56.215,95.3995 C55.4423295,97.4531769 55.056,99.7406541 55.056,102.262 Z M63.718,102.262 C63.718,101.001327 63.8399988,99.7610061 64.084,98.541 C64.3280012,97.3209939 64.7448304,96.243338 65.3345,95.308 C65.9241696,94.372662 66.7069951,93.6101696 67.683,93.0205 C68.6590049,92.4308304 69.8789927,92.136 71.343,92.136 C72.8070073,92.136 74.0371617,92.4308304 75.0335,93.0205 C76.0298383,93.6101696 76.8228304,94.372662 77.4125,95.308 C78.0021696,96.243338 78.4189988,97.3209939 78.663,98.541 C78.9070012,99.7610061 79.029,101.001327 79.029,102.262 C79.029,103.522673 78.9070012,104.752827 78.663,105.9525 C78.4189988,107.152173 78.0021696,108.229829 77.4125,109.1855 C76.8228304,110.141171 76.0298383,110.903664 75.0335,111.473 C74.0371617,112.042336 72.8070073,112.327 71.343,112.327 C69.8789927,112.327 68.6590049,112.042336 67.683,111.473 C66.7069951,110.903664 65.9241696,110.141171 65.3345,109.1855 C64.7448304,108.229829 64.3280012,107.152173 64.084,105.9525 C63.8399988,104.752827 63.718,103.522673 63.718,102.262 Z" id="Path" fill="#0F6EDC"></path>
                        <path d="M129.354,118 L139.297,86.463 L130.391,86.463 L124.596,107.813 L124.474,107.813 L119.106,86.463 L110.688,86.463 L105.442,107.874 L105.32,107.874 L99.525,86.463 L90.375,86.463 L100.379,118 L109.346,118 L114.714,96.833 L114.836,96.833 L120.448,118 L129.354,118 Z" id="Path" fill="#0F6EDC"></path>
                    </g>
                </g>
            </g>
        </g>
    </g>
</svg>