<?xml version="1.0" encoding="UTF-8" standalone="no"?>
<svg width="126px" height="126px" viewBox="0 0 126 126" version="1.1" xmlns="http://www.w3.org/2000/svg" xmlns:xlink="http://www.w3.org/1999/xlink" xmlns:sketch="http://www.bohemiancoding.com/sketch/ns">
    <!-- Generator: Sketch Beta 3.4 (15009) - http://www.bohemiancoding.com/sketch -->
    <title>payment</title>
    <desc>Created with Sketch Beta.</desc>
    <defs></defs>
    <g id="WireFrame-Storyboard" stroke="none" stroke-width="1" fill="none" fill-rule="evenodd" sketch:type="MSPage">
        <g id="Desktop-Landing" sketch:type="MSArtboardGroup" transform="translate(-303.000000, -2221.000000)">
            <g id="payment" sketch:type="MSLayerGroup" transform="translate(304.000000, 2222.000000)">
                <rect id="base" stroke="#1485E0" stroke-width="2" sketch:type="MSShapeGroup" x="0" y="0" width="124" height="124" rx="100"></rect>
                <g id="logo-+-Group" transform="translate(27.000000, 16.000000)" sketch:type="MSShapeGroup">
                    <g id="logo">
                        <ellipse id="XMLID_274_" fill="#C4E1F7" cx="46.9285714" cy="22.5" rx="18.8035714" ry="18.8035714"></ellipse>
                        <ellipse id="XMLID_273_" fill="#1485E0" cx="20.0892857" cy="22.5" rx="18.8035714" ry="18.8035714"></ellipse>
                        <g id="XMLID_272_" transform="translate(24.107143, 0.000000)" fill="#FFFFFF">
                            <path d="M22.8214286,3.69642857 C33.2678571,3.69642857 41.625,12.0535714 41.625,22.5 C41.625,32.9464286 33.2678571,41.3035714 22.8214286,41.3035714 C12.375,41.3035714 4.01785714,32.9464286 4.01785714,22.5 C4.01785714,12.0535714 12.5357143,3.69642857 22.8214286,3.69642857 L22.8214286,3.69642857 Z M22.8214286,0.482142857 C10.6071429,0.482142857 0.803571429,10.2857143 0.803571429,22.5 C0.803571429,34.7142857 10.6071429,44.5178571 22.8214286,44.5178571 C35.0357143,44.5178571 44.8392857,34.7142857 44.8392857,22.5 C44.8392857,10.2857143 35.0357143,0.482142857 22.8214286,0.482142857 L22.8214286,0.482142857 L22.8214286,0.482142857 Z" id="XMLID_45_"></path>
                        </g>
                    </g>
                    <g id="Group" transform="translate(0.000000, 59.000000)">
                        <path d="M24,23 L27.4635845,1 L33,1 L29.5367321,23 L24,23" id="Fill-3" fill="#C4E1F7"></path>
                        <path d="M44.9232983,0 C39.3219793,0 35.3790862,3.02373526 35.3463584,7.35351093 C35.3107142,10.556255 38.1599794,12.3423944 40.3080266,13.4069045 C42.5156968,14.4980686 43.2574195,15.1963346 43.2486705,16.1719984 C43.2334407,17.6642869 41.4865524,18.3480743 39.8576139,18.3480743 C37.5893487,18.3480743 36.3842518,18.0114456 34.5210339,17.1795811 L33.7922726,16.8248541 L33,21.8124213 C34.3211025,22.4330291 36.7701809,22.9717008 39.3119341,23 C45.2648343,23 49.1328746,20.0127904 49.1782399,15.3891639 C49.1986543,12.8494764 47.6889617,10.9244735 44.4194194,9.33511217 C42.4395479,8.30186277 41.2244058,7.61741731 41.2383394,6.57166361 C41.2396356,5.64568788 42.2648914,4.65422914 44.4839029,4.65422914 C46.3370757,4.62395559 47.6785925,5.05765709 48.7239388,5.51044409 L49.2326783,5.76513677 L50,0.934860364 C48.879801,0.487667392 47.118007,0 44.9232983,0 Z" id="Fill-4" fill="#C4E1F7"></path>
                        <path d="M57.6225733,15.1871195 C58.0841044,13.9217651 59.8410441,9.03363481 59.8410441,9.03363481 C59.8085554,9.0918307 60.3000271,7.75852693 60.5812776,6.93338062 L60.9571276,8.83206242 C60.9571276,8.83206242 62.0257521,14.0865993 62.2458473,15.1871195 L57.6225733,15.1871195 L57.6225733,15.1871195 Z M64.4929847,1 L60.1891832,1 C58.8542785,1 57.8550907,1.38948986 57.2702935,2.8248803 L49,23 L54.8492459,23 C54.8492459,23 55.8035228,20.2859254 56.0201143,19.6903115 C56.6581039,19.6903115 62.3417209,19.7016906 63.1529837,19.7016906 C63.3198866,20.4699415 63.8311064,23 63.8311064,23 L69,23 L64.4929847,1 L64.4929847,1 Z" id="Fill-5" fill="#C4E1F7"></path>
                        <path d="M19.9935812,1 L14.445878,16.0244537 L13.8516549,12.9703537 C12.8178429,9.45149933 9.59970175,5.63745432 6,3.7263636 L11.075372,23 L17.0740104,22.99642 L26,1 L19.9935812,1" id="Fill-6" fill="#C4E1F7"></path>
                        <path d="M9.36859699,1 L0.0764595104,1 L0,1.45717699 C7.23036723,3.2849074 12.0143597,7.69668169 14,13 L11.9807439,2.86161951 C11.6323917,1.46336827 10.6199623,1.04887851 9.36859699,1" id="Fill-7" fill="#1485E0"></path>
                    </g>
                </g>
            </g>
        </g>
    </g>
</svg>