<?xml version="1.0" encoding="UTF-8" standalone="no"?>
<svg width="173px" height="173px" viewBox="0 0 173 173" version="1.1" xmlns="http://www.w3.org/2000/svg" xmlns:xlink="http://www.w3.org/1999/xlink" xmlns:sketch="http://www.bohemiancoding.com/sketch/ns">
    <!-- Generator: Sketch Beta 3.4 (15009) - http://www.bohemiancoding.com/sketch -->
    <title>plumbing-wrench-v2</title>
    <desc>Created with Sketch Beta.</desc>
    <defs>
        <rect id="path-1" x="0" y="0" width="173" height="173" rx="10"></rect>
    </defs>
    <g id="WireFrame-Storyboard" stroke="none" stroke-width="1" fill="none" fill-rule="evenodd" sketch:type="MSPage">
        <g id="Landing-Page-v2" sketch:type="MSArtboardGroup" transform="translate(-106.000000, -231.000000)">
            <g id="plumbing-wrench-v2" sketch:type="MSLayerGroup" transform="translate(106.000000, 231.000000)">
                <mask id="mask-2" sketch:name="Mask" fill="white">
                    <use xlink:href="#path-1"></use>
                </mask>
                <use id="Mask" fill="#FCFCFC" sketch:type="MSShapeGroup" xlink:href="#path-1"></use>
                <g id="Plumbing-Wrench" mask="url(#mask-2)">
                    <g transform="translate(26.000000, 18.000000)">
                        <path d="M0,84.0997375 C0,53.5280355 24.7826286,28.7454068 55.3543307,28.7454068 C85.9260328,28.7454068 110.708661,53.5280355 110.708661,84.0997375 C110.708661,114.671603 85.9260328,139.454068 55.3543307,139.454068 C24.7826286,139.454068 0,114.671603 0,84.0997375" id="Fill-1" fill="#C9374A" sketch:type="MSShapeGroup"></path>
                        <g id="Group-5" stroke-width="1" fill="none" sketch:type="MSLayerGroup">
                            <path d="M58.2490606,139.151132 L47.8657621,124.120167 L55.0328028,139.229044 C54.4929554,139.226599 53.9549015,139.216656 53.4188042,139.19889 L46.2509482,124.907436 L50.6737511,139.040621 C50.1366755,138.996286 49.6015565,138.944454 49.0688831,138.884797 L44.5425457,125.462436 L46.7063375,138.569238 C46.1764359,138.486599 45.6493062,138.396789 45.1246221,138.299317 L42.7733267,125.774247 L43.0630605,137.875855 C42.5439201,137.758824 42.0273884,137.634458 41.5137915,137.502921 L40.9781833,125.836837 L39.6806582,136.999101 C39.1732571,136.850286 38.6691169,136.6943 38.1680746,136.531467 L39.1915183,125.649229 L36.4994554,135.959189 C36.004935,135.780709 35.5136755,135.59522 35.0256769,135.403048 L37.4483868,125.214683 L33.4674403,134.761661 C32.9858006,134.554819 32.5075848,134.341132 32.0331191,134.120925 L35.7827024,124.542 L30.5370032,133.399018 C30.0684072,133.164304 29.6035613,132.92307 29.1426285,132.675317 L34.2270746,123.644057 L27.6657521,131.852189 C27.2105259,131.589278 26.7595389,131.320335 26.3124651,131.044872 L32.8113407,122.538621 L24.8161861,130.089229 C24.3754711,129.797793 23.9391583,129.500163 23.5074109,129.196502 L31.5635448,121.246555 L21.9561852,128.064824 C21.5319379,127.743885 21.1124189,127.417079 20.6977913,127.084242 L30.5074918,119.793775 L19.0608032,125.71785 C18.6562845,125.366921 18.2569833,125.010286 17.8630626,124.647784 L29.6642146,118.207991 L16.1163441,122.969907 C15.7366085,122.588824 15.3624165,122.202198 14.993605,121.810194 L29.0498549,116.520335 L13.1268841,119.721731 C12.7786165,119.31196 12.4362186,118.896811 12.0998534,118.476771 L28.6763151,114.763731 L10.1260109,115.856291 C9.81768975,115.421256 9.51589044,114.98133 9.22012385,114.537167 L28.5509322,112.972247 L7.19100855,111.243352 C6.93306878,110.789899 6.68132478,110.33237 6.43593961,109.87093 L28.6763151,111.180762 L4.4627493,105.757247 C4.26464764,105.296295 4.0729048,104.83241 3.88719469,104.365101 L29.0498549,109.424159 L2.15596558,99.3031101 C2.02520218,98.8498194 1.90030847,98.3940837 1.78079529,97.9360661 L29.6642146,107.736665 L0.558434706,91.8540485 C0.49729222,91.42537 0.441041133,90.9950617 0.389518398,90.5634493 L30.5074918,106.151044 L0.00211960618,83.4791718 C0.0055435854,83.0901013 0.0128806837,82.7021718 0.0242939478,82.3152203 L31.5635448,104.697938 L0.830722577,74.370815 C0.888930224,74.038467 0.95007271,73.7072599 1.01431308,73.3770308 L32.8113407,103.406198 L3.38338061,64.8880573 C3.48153468,64.6213965 3.58164531,64.3557137 3.6837125,64.0910088 L34.2270746,102.300599 L7.88411977,55.5092907 C8.00444818,55.3096211 8.12591792,55.1106035 8.24869203,54.9125639 L35.7827024,101.402656 L14.3978326,46.7704449 L14.776916,46.3587181 L37.4483868,100.729974 L22.8242455,39.2288018 L23.1796871,38.9727357 L39.1915183,100.295427 L32.9023207,33.4217577 L33.2106419,33.2863084 L40.9781833,100.107656 L44.2060174,29.8159692 L44.4590658,29.7651145 L42.7733267,100.17041 L56.1870098,28.7144449 L56.3896768,28.7181938 L44.5425457,100.48222 L68.2314274,30.2325859 L68.3959415,30.2723568 L46.2509482,101.03722 L79.6869206,34.372185 L79.8295864,34.4427621 L47.8657621,101.824489 L89.9402709,40.9177621 L90.0741322,41.0259912 L49.35503,102.828705 L98.4742945,49.4817137 L98.6039166,49.6442203 L50.6900558,104.030308 L104.890505,59.568207 L105.007736,59.8071586 L51.844752,105.405991 L108.931127,70.6105066 L109.013955,70.9482335 L52.7967813,106.929185 L110.522299,81.991022 L110.536321,82.4423568 L53.5273932,108.56941 L109.80522,93.1035727 L109.707881,93.6703084 L54.0225658,110.295859 L107.027558,103.440753 C106.943263,103.664709 106.8575,103.887687 106.770433,104.110176 L54.2725163,112.074304 L102.566113,112.60404 C102.415132,112.852608 102.262357,113.099709 102.107789,113.345507 L54.2725163,113.870352 L96.8995902,120.33704 C96.6734445,120.595225 96.4451792,120.851291 96.2146313,121.105401 L54.0225658,115.648797 L90.5199017,126.545542 C90.216798,126.796555 89.9109225,127.044308 89.6022752,127.288965 L53.5273932,117.375084 L83.8627078,131.277793 C83.4873744,131.504846 83.1091063,131.727824 82.7279032,131.946075 L52.7967813,119.015471 L77.2741565,134.681956 C76.8371916,134.87152 76.3974548,135.055705 75.9549463,135.234185 L51.844752,120.538502 L70.9950678,136.96422 C70.5113084,137.107167 70.0251034,137.243921 69.5359635,137.374154 L50.6900558,121.914348 L65.1679443,138.34789 C64.6533691,138.440634 64.1361852,138.526533 63.6165556,138.605097 L49.35503,123.115952 L59.8488741,139.043392 C59.3176682,139.086912 58.7845057,139.122934 58.2490606,139.151132" id="Fill-2" fill="#FFFFFF" sketch:type="MSShapeGroup"></path>
                            <path d="M89.7773873,26.2778238 L71.4833924,16.574859 L69.4976475,20.0983348 C70.3549467,25.2056388 70.065702,30.6400749 68.6295873,36.4011542 C62.2521814,49.3475683 43.4537203,81.5727753 12.2359974,133.073678 C3.46229518,147.565454 13.4264008,154.177044 23.0335973,140.56789 L78.9799504,51.3894141 L90.6451215,57.0950749 L95.7351112,49.8244934 L97.9179794,51.1657841 L104.09924,39.92463 L101.218858,33.3247753 L107.847682,18.3366784 C107.813279,14.5998414 106.704073,11.2253436 104.519737,8.21318502 L90.2246242,0.0751409692 C85.9094321,0.0961674009 81.5735331,0.82361674 77.2175793,2.25732599 L74.1402373,7.12209251 L93.3019663,18.1130485 L89.7773873,26.2778238" id="Fill-4" fill="#1A1918" sketch:type="MSShapeGroup"></path>
                        </g>
                        <path d="M59.1872712,139.065617 L54.136189,117.147547 C49.3813013,115.7833 45.0472014,113.434976 41.1338896,110.102412 L27.234061,97.0762298 C25.0502576,92.4799614 25.7608965,89.5220282 29.9133109,87.8040087 C27.946489,83.6429893 29.2153591,80.5080885 33.1722624,78.7982167 C31.898838,74.8540885 33.2225228,70.7414663 39.3791696,70.6280506 C38.0229539,65.6775211 41.9435852,61.4575125 46.9144786,63.421429 L50.6200802,66.3361795 L63.5966802,69.8080682 L69.1301965,79.0641569 L70.3571016,98.8375949 C73.610035,107.955173 81.5820721,117.817938 90.8976378,126.204832 C82.2110582,133.542631 71.2302326,138.240909 59.1872712,139.065617" id="Fill-6" fill="#1A1918" sketch:type="MSShapeGroup"></path>
                        <path d="M74.8148276,135.871882 L67.5409081,119.680949 C70.0501485,127.659819 71.3066385,133.45296 71.3094026,137.060211 C68.8603201,137.798795 66.3393732,138.371093 63.7598942,138.763884 L62.044252,125.722298 L61.7366331,139.033795 L61.4501507,139.065617 L56.8844809,117.466501 C51.2354787,114.695747 48.1568506,112.231133 47.648759,110.07331 L50.7145426,101.479551 L55.0148667,108.084059 C53.9461673,98.1817037 55.2545233,90.800915 58.9400973,85.9429987 L57.2950189,77.9866492 C48.5246275,78.3185717 44.4987542,74.6969607 46.9188957,69.144357 C52.191016,70.9589973 56.2897293,71.2021461 62.7915124,71.8325378 L67.7267476,80.4262961 C68.1641128,91.4353864 68.7497594,98.3406479 69.4843378,101.141591 C74.0277329,111.503808 81.7382047,121.103614 88.9553806,127.981624 C84.6906636,131.266906 79.9337888,133.940726 74.8148276,135.871882" id="Fill-7" fill="#FFFFFF" sketch:type="MSShapeGroup"></path>
                        <path d="M81.0699677,50.4986877 L73.121978,63.7598918 C69.7989948,69.3970968 76.7999836,71.7432309 80.5963849,68.339113 L89.7322835,54.7224784 L81.0699677,50.4986877" id="Fill-8" fill="#1A1918" sketch:type="MSShapeGroup"></path>
                        <path d="M45.940229,64.7566241 C43.4888168,63.5640337 39.3369878,66.4403581 41.2975919,70.0634631 L45.5307295,74.5089595 L49.4000318,83.0803245 C51.3118508,85.258639 54.3067985,84.2555669 54.7716535,82.037974 L54.2258185,78.6361373 C47.1697131,79.2253133 43.5132915,73.582644 45.3942297,68.1584607 L49.5818673,68.6569691 L45.940229,64.7566241" id="Fill-9" fill="#FFFFFF" sketch:type="MSShapeGroup"></path>
                        <path d="M38.9162258,72.2519685 C34.8559409,72.535986 33.1887683,75.7085977 34.7794831,78.5876056 L41.1019033,82.8696402 L43.9064469,89.5508752 C45.62732,91.9484507 49.3654017,89.5011559 48.3994468,86.0268162 L45.4567226,77.719305 L38.9162258,72.2519685" id="Fill-10" fill="#FFFFFF" sketch:type="MSShapeGroup"></path>
                        <path d="M33.4182433,81.1863561 C30.0433834,81.1818424 28.9251575,84.6398608 30.8514924,87.4074362 L36.8454458,91.7901291 L39.719032,96.4502566 C42.0216092,98.9426543 45.6639245,96.5864752 44.4195188,93.7097637 L40.2481998,86.1848539 L33.4182433,81.1863561" id="Fill-11" fill="#FFFFFF" sketch:type="MSShapeGroup"></path>
                        <path d="M30.3265062,89.343832 C27.2718279,89.9058185 26.449528,92.0822211 27.8596066,95.8732017 L32.5564246,101.085658 L36.5191751,103.239562 C39.3701645,103.979274 41.4952864,99.8914372 38.6997293,98.1060943 L35.0963045,95.3134813 L30.3265062,89.343832" id="Fill-12" fill="#FFFFFF" sketch:type="MSShapeGroup"></path>
                        <path d="M53.2178478,67.2113452 L71.1556632,35.2910371 L72.5089173,30.2296404 L76.8468459,31.0502932 L72.4048083,23.5045122 L85.6380363,30.0216333 L86.3664738,29.0857641 L73.4343486,22.7878629 L74.7762158,20.1994751 L89.7789711,27.6412526 L87.3961768,29.5017782 L91.5371116,28.877757 L99.2875375,33.0146599 L101.774278,39.2085575 L96.4995314,47.3781972 L83.6715152,42.8254428 L64.903756,71.0866142 L62.3163223,68.8162496 L53.2178478,67.2113452" id="Fill-13" fill="#FFFFFF" sketch:type="MSShapeGroup"></path>
                        <g id="Group-17" stroke-width="1" fill="none" sketch:type="MSLayerGroup">
                            <path d="M100.043455,31.5357357 L92.4063512,27.5923833 L97.6931381,16.686022 L77.2175793,6.53547137 L79.1478884,3.51565198 C83.1131824,2.53132159 86.9173864,2.11160793 90.5600111,2.25618502 L103.400096,8.96899559 C105.324373,11.6044714 106.191781,14.6801982 106.00232,18.1958502 L100.043455,31.5357357" id="Fill-14" fill="#FFFFFF" sketch:type="MSShapeGroup"></path>
                            <path d="M31.7557768,104.182383 L12.0124604,137.05941 C8.16553825,144.422899 14.2810912,148.014018 19.1809685,141.867617 L40.0406652,109.972965 L31.7557768,104.182383" id="Fill-16" fill="#FFFFFF" sketch:type="MSShapeGroup"></path>
                        </g>
                        <path d="M33.4881563,104.493438 L16.4492297,133.162947 C14.9896967,136.304314 16.5866167,137.120807 21.2401531,135.612592 C18.0874311,135.743741 17.2077953,134.50044 18.6015719,131.882689 L35.3490814,106.45577 L33.4881563,104.493438" id="Fill-18" fill="#1A1918" sketch:type="MSShapeGroup"></path>
                        <path d="M54.7716535,67.8496797 L74.4108211,36.5238412 C77.0592138,33.9308784 80.9662551,35.9064068 79.8135291,39.7542033 L77.5352118,44.95813 L77.7397013,40.7038381 C77.9842387,38.0131789 77.1907998,37.5602082 75.3593844,39.3445986 L57.4775845,68.3674541 L54.7716535,67.8496797" id="Fill-19" fill="#1A1918" sketch:type="MSShapeGroup"></path>
                        <path d="M87.0131234,38.7158155 L95.8748064,43.1181102 L98.2782152,37.7333947 L90.1504233,33.4068241 L87.0864963,35.1260606 L90.0036773,35.0505025 L95.4529521,38.5646994 L94.6455267,40.3596599 L87.0131234,38.7158155" id="Fill-20" fill="#1A1918" sketch:type="MSShapeGroup"></path>
                        <path d="M96.926314,30.687664 L100.608924,23.6955381 L95.5590551,29.5160715 L96.926314,30.687664" id="Fill-21" fill="#1A1918" sketch:type="MSShapeGroup"></path>
                        <path d="M82.4498533,52.8293963 L74.9844258,65.2904855 C74.8781333,66.7855389 75.4090968,67.681765 76.5769838,67.9790026 C75.7557535,67.3435848 75.6870542,66.4692807 76.3717178,65.3567353 L83.9055118,53.3779318 L82.4498533,52.8293963" id="Fill-22" fill="#FFFFFF" sketch:type="MSShapeGroup"></path>
                        <path d="M84.9004061,45.0603675 L94.0052493,49.5466817 L91.1537006,54.3832021 L82.351706,50.1241248 L84.9004061,45.0603675" id="Fill-23" fill="#FFFFFF" sketch:type="MSShapeGroup"></path>
                        <path d="M57.4908136,108.766404 L66.0367454,128.577428 L65.4874405,119.882162 L64.3933718,122.085143 L64.2837379,117.901256 L63.0780891,119.112805 L63.0780891,114.708962 L61.9815877,115.810371 L61.6533347,112.288469 L60.4496321,113.497575 L60.338052,110.307562 L59.5720742,111.408971 L57.4908136,108.766404" id="Fill-24" fill="#1A1918" sketch:type="MSShapeGroup"></path>
                        <path d="M36.5144357,98.2782152 C34.2421607,98.355635 33.6313268,99.3915056 34.6821035,101.385827 C34.8679137,99.8446989 35.4787476,98.8088284 36.5144357,98.2782152" id="Fill-25" fill="#1A1918" sketch:type="MSShapeGroup"></path>
                        <path d="M43.1181102,92.9397257 C41.0969614,91.9030102 40.0610909,92.5171524 40.0104987,94.7821522 C40.9206502,93.5169819 41.9565207,92.9028398 43.1181102,92.9397257" id="Fill-26" fill="#1A1918" sketch:type="MSShapeGroup"></path>
                        <path d="M48.167979,85.5590614 C46.1468301,84.522467 45.1107904,85.1366382 45.0603675,87.4015748 C45.970519,86.1363449 47.0063895,85.5223438 48.167979,85.5590614" id="Fill-27" fill="#1A1918" sketch:type="MSShapeGroup"></path>
                        <path d="M53.6062992,79.732317 C51.5851504,78.695738 50.5492798,79.30973 50.4986877,81.5748031 C51.4088392,80.309592 52.4447097,79.6954299 53.6062992,79.732317" id="Fill-28" fill="#1A1918" sketch:type="MSShapeGroup"></path>
                        <path d="M26.8031496,93.0218121 L32.4663292,100.032405 L34.9606299,101.385827 L32.8194196,99.7281331 L32.7802057,97.6144334 L32.1291229,98.6788219 L31.6193424,95.880712 L30.9133271,97.0820788 L30.7172576,94.6031572 L30.1446026,95.8046843 L29.6348221,93.3639369 L28.8897583,94.6031572 L28.4347449,92.9456239 L27.7679435,93.6528103 L27.4150185,92.4514436 L26.8031496,93.0218121" id="Fill-29" fill="#1A1918" sketch:type="MSShapeGroup"></path>
                        <path d="M29.7807315,85.6540033 L36.4685093,90.4151221 L39.2073512,94.0052493 L39.6220472,91.8710728 L38.9335825,92.5515822 L38.7771433,90.711173 L38.2685507,91.2138887 L37.9556722,89.7602215 L37.5411412,90.1699626 L37.1889879,87.9583071 L36.2503524,89.1415322 L35.4445583,86.7597494 L34.8188013,87.9971281 L33.7781833,85.8474559 L33.2306459,86.953202 L32.2293027,85.3449033 L31.7990948,86.156719 L31.1731728,85.1127928 L30.7429649,85.6928243 L29.5223097,84.2939633 L29.7807315,85.6540033" id="Fill-30" fill="#1A1918" sketch:type="MSShapeGroup"></path>
                        <path d="M33.7952756,77.1067143 L41.7930763,81.9214261 L43.9152272,87.0131234 L44.671916,84.8874714 L43.7778419,85.1545231 L43.9152272,83.2265523 L43.158703,83.5725771 L43.158703,81.1701053 L42.3432758,81.9906311 L41.3802622,78.6192898 L40.564835,80.0628258 L39.0616585,77.7888302 L38.1674198,78.6886603 L37.2144428,76.5532402 L36.4579185,77.3143292 L35.7112662,76.2070498 L35.2986166,76.8298945 L33.8640505,74.9711286 L33.7952756,77.1067143" id="Fill-31" fill="#1A1918" sketch:type="MSShapeGroup"></path>
                        <path d="M40.0104987,67.7245178 L45.4488189,72.6404199 L44.466483,69.6700912 L43.8546405,70.5073737 L43.2426303,68.4779435 L42.2165195,69.4607705 L41.9543732,67.89191 L41.3861379,68.4779435 L40.7971054,67.2020997 L40.0104987,67.7245178" id="Fill-32" fill="#1A1918" sketch:type="MSShapeGroup"></path>
                        <path d="M59.9593667,87.0131234 C56.0448307,91.5663296 54.9874236,97.5226397 56.787468,104.88189 L59.722523,101.500449 L57.6632089,102.141545 L59.9593667,99.6495773 L57.5052594,98.9282011 L59.4069465,97.0693015 L57.7421031,95.378663 L60.0382608,94.3368207 L57.9000526,92.8866955 L60.3615815,91.1958932 L58.6967381,90.0740982 L60.5984252,88.8641587 L59.2491582,88.6236454 L59.9593667,87.0131234" id="Fill-33" fill="#1A1918" sketch:type="MSShapeGroup"></path>
                        <path d="M90.2750749,4.27296588 L83.8283965,5.11672015 L82.351706,7.03891973 L89.4446108,10.0997375 L86.3727796,7.51463579 L92.1077723,9.13547075 L89.2073822,6.85806762 L93.4064593,7.99668584 L90.6248476,5.95397375 L98.6666667,8.59941509 L90.2750749,4.27296588" id="Fill-34" fill="#1A1918" sketch:type="MSShapeGroup"></path>
                        <path d="M61.7746529,69.9212598 L76.1364829,47.7795276 L72.5723643,49.2308695 L73.7240213,50.0585764 L70.4225497,51.7697798 L70.9478438,52.9651753 L68.1677092,54.8321651 L69.1131067,55.7676991 L66.8058357,57.6829745 L67.4361556,58.8224174 L64.1308919,60.8455198 L65.2339105,62.5567232 L61.9324389,64.4757506 L63.2943125,65.4112846 L61.3547144,66.8626265 L62.6115621,67.32656 L60.9868766,68.6258674 L61.7746529,69.9212598" id="Fill-35" fill="#1A1918" sketch:type="MSShapeGroup"></path>
                        <path d="M38.4566929,107.989501 L21.7532808,134.015748 L22.641919,130.287442 L23.08632,130.727269 L24.4885611,127.140811 L24.9327982,127.580476 L26.1128388,123.778973 L26.7051548,125.533251 L28.6951204,120.783441 L29.0654,121.87814 L30.3241537,116.61547 L31.1340787,118.296551 L31.6522733,115.374378 L32.3880768,116.102447 L32.9803929,113.546742 L33.5728729,114.133287 L33.9383969,111.426158 L34.9009925,111.865986 L35.7848751,109.525326 L38.4566929,107.989501" id="Fill-36" fill="#1A1918" sketch:type="MSShapeGroup"></path>
                        <path d="M46.6141732,107.351241 C48.4910812,112.190306 51.3398353,114.604272 55.160105,114.593138 L51.974453,113.533763 L53.0441616,112.474225 L50.7637366,111.845477 L51.974453,111.135352 L49.059245,110.727813 L50.6814132,108.55061 L48.9769216,109.039527 L49.6351784,107.351241 L47.4370768,106.047244 L46.6141732,107.351241" id="Fill-37" fill="#1A1918" sketch:type="MSShapeGroup"></path>
                        <path d="M76.5249344,27.191601 L78.140009,32.0209485 L81.9802161,33.4068241 L79.0083767,30.747081 L82.7401575,31.824893 L78.6282466,29.3612054 L82.1701218,29.9492074 L76.5249344,27.191601" id="Fill-38" fill="#1A1918" sketch:type="MSShapeGroup"></path>
                        <path d="M47.1240794,70.3097113 C45.6230038,73.2257398 47.3726315,76.3169326 53.2178478,77.3018373 L48.8898718,74.9856841 L49.9735463,74.9856841 L48.1717434,73.8242869 L48.9257222,73.6008072 L47.4896254,72.5953145 L48.1717434,72.2532875 L47.1240794,71.3593686 L47.8846201,70.533191 L47.1240794,70.3097113" id="Fill-39" fill="#1A1918" sketch:type="MSShapeGroup"></path>
                    </g>
                </g>
            </g>
        </g>
    </g>
</svg>