<?xml version="1.0" encoding="UTF-8" standalone="no"?>
<svg width="180px" height="180px" viewBox="0 0 180 180" version="1.1" xmlns="http://www.w3.org/2000/svg" xmlns:xlink="http://www.w3.org/1999/xlink" xmlns:sketch="http://www.bohemiancoding.com/sketch/ns">
    <!-- Generator: Sketch Beta 3.4 (15009) - http://www.bohemiancoding.com/sketch -->
    <title>plumbing-wrench-v2</title>
    <desc>Created with Sketch Beta.</desc>
    <defs></defs>
    <g id="WireFrame-Storyboard" stroke="none" stroke-width="1" fill="none" fill-rule="evenodd" sketch:type="MSPage">
        <g id="Landing-Page-v2-iPhone-6+" sketch:type="MSArtboardGroup" transform="translate(-14.000000, -69.000000)">
            <g id="plumbing-wrench-v2" sketch:type="MSLayerGroup" transform="translate(14.000000, 69.000000)">
                <rect id="Mask" fill="#FCFCFC" sketch:type="MSShapeGroup" x="0" y="0" width="180" height="180" rx="10.4046243"></rect>
                <g id="Plumbing-Wrench" transform="translate(27.052023, 18.728324)" sketch:type="MSShapeGroup">
                    <path d="M0,87.5026171 C0,55.6939097 25.785394,29.9085158 57.5941013,29.9085158 C89.4028087,29.9085158 115.188203,55.6939097 115.188203,87.5026171 C115.188203,119.311494 89.4028087,145.096718 57.5941013,145.096718 C25.785394,145.096718 0,119.311494 0,87.5026171" id="Fill-1" fill="#C9374A"></path>
                    <g id="Group-5">
                        <path d="M60.605959,144.781525 L49.802527,129.142371 L57.2595636,144.862589 C56.6978726,144.860045 56.1380478,144.8497 55.5802587,144.831215 L48.1223739,129.961494 L52.7241341,144.666542 C52.1653271,144.620414 51.6085559,144.566484 51.0543293,144.504413 L46.3448452,130.538951 L48.5961893,144.176086 C48.0448466,144.090103 47.4963879,143.996659 46.9504739,143.895243 L44.5040393,130.863378 L44.8054965,143.454646 C44.2653504,143.33288 43.7279185,143.203482 43.1935403,143.066623 L42.6362601,130.928501 L41.286234,142.542418 C40.7583022,142.387581 40.2337633,142.225283 39.7124476,142.055862 L40.7773023,130.733302 L37.976312,141.460428 C37.4617821,141.274726 36.950645,141.081732 36.4429009,140.881785 L38.9636395,130.281173 L34.8216142,140.214445 C34.3204861,139.999234 33.8229206,139.776901 33.3292569,139.547783 L37.2305575,129.581272 L31.7726045,138.796666 C31.285048,138.552455 30.8013932,138.301461 30.32181,138.043683 L35.6119851,128.646996 L28.7851756,137.187249 C28.3115298,136.913699 27.8422948,136.633874 27.3771313,136.347266 L34.1389672,127.496831 L25.8203093,135.352955 C25.3617618,135.049727 24.9077948,134.740054 24.4585778,134.424106 L32.8406825,126.152485 L22.8445858,133.246637 C22.4031724,132.912713 21.9666786,132.572684 21.5352742,132.226379 L31.741899,124.640922 L19.8320495,130.8047 C19.411163,130.439571 18.9957052,130.068506 18.5858455,129.691336 L30.8645008,122.990973 L16.7684505,127.945568 C16.3733499,127.549065 15.9840171,127.146796 15.6002827,126.73893 L30.2252826,121.23503 L13.6580297,124.565963 C13.2956704,124.139612 12.9394182,123.707664 12.5894429,123.270629 L29.8366284,119.40735 L10.5357339,120.544118 C10.2149373,120.09148 9.90092647,119.633754 9.59319245,119.171619 L29.7061723,117.543378 L7.48197421,115.744529 C7.21359757,115.272727 6.9516674,114.796686 6.69635335,114.316574 L29.8366284,115.679406 L4.64332297,110.036442 C4.43720564,109.556839 4.23770442,109.074183 4.04448003,108.587967 L30.2252826,113.851726 L2.24320118,103.321155 C2.10714678,102.849523 1.97719956,102.375347 1.85285059,101.898797 L30.8645008,112.095952 L0.58103033,95.5706863 C0.51741387,95.1246625 0.458886728,94.6769428 0.405279258,94.2278664 L31.741899,110.446173 L0.0022053706,86.8569418 C0.00576789233,86.4521285 0.0134018675,86.0485025 0.0252769399,85.6458939 L32.8406825,108.934271 L0.864335629,77.3800387 C0.924898499,77.0342431 0.988514958,76.6896346 1.05535465,76.3460436 L34.1389672,107.590264 L3.5202804,67.5135856 C3.62240602,67.2361351 3.72656737,66.9597021 3.83276445,66.6842866 L35.6119851,106.43993 L8.2031304,57.7553314 C8.32832759,57.5475827 8.45471229,57.3405123 8.58245414,57.1344595 L37.2305575,105.505654 L14.9804039,48.6628907 L15.3748259,48.2345043 L38.9636395,104.805753 L23.7477699,40.8160943 L24.1175935,40.5496672 L40.7773023,104.353624 L34.2336285,34.7740832 L34.5544251,34.6331532 L42.6362601,104.158255 L45.9947002,31.0223957 L46.2579875,30.9694833 L44.5040393,104.223548 L58.4604727,29.8763011 L58.67134,29.8802017 L46.3448452,104.547975 L70.9922366,31.4558697 L71.1634073,31.4972499 L48.1223739,105.125431 L82.9112468,35.7629671 L83.0596852,35.8363999 L49.802527,105.944555 L93.5794726,42.5733941 L93.7187502,42.6860024 L51.3520543,106.989404 L102.458804,51.4838639 L102.59367,51.6529459 L52.7410985,108.239627 L109.13463,61.9784813 L109.256604,62.2271014 L53.9425165,109.670973 L113.338745,73.4675791 L113.424924,73.8189713 L54.9330672,111.255799 L114.9943,85.3085778 L115.008889,85.7781747 L55.6932415,112.962392 L114.248206,96.8707693 L114.146928,97.4604365 L56.20845,114.758697 L111.358152,107.626217 C111.270447,107.859235 111.181214,108.091235 111.090624,108.322727 L56.4685141,116.609102 L106.716187,117.160272 C106.559096,117.418898 106.40014,117.675998 106.239318,117.931741 L56.4685141,118.477823 L100.820383,125.206168 C100.585087,125.4748 100.347585,125.741227 100.107709,126.005619 L56.20845,120.328228 L94.1825566,131.665882 C93.8671886,131.927052 93.5489367,132.18483 93.2278008,132.439385 L55.6932415,122.124365 L87.2559965,136.589611 C86.8654763,136.825851 86.4719025,137.057851 86.075275,137.284933 L54.9330672,123.831126 L80.4008565,140.131515 C79.9462109,140.328749 79.4886813,140.520387 79.0282678,140.706088 L53.9425165,125.415783 L73.8677006,142.506125 C73.3643672,142.654856 72.8584891,142.797143 72.3495574,142.932646 L52.7410985,126.847299 L67.8047975,143.945781 C67.2694014,144.042279 66.731291,144.131653 66.1906359,144.213396 L51.3520543,128.097522 L62.2705048,144.669425 C61.717805,144.714706 61.1630695,144.752186 60.605959,144.781525" id="Fill-2" fill="#FFFFFF"></path>
                        <path d="M93.4099984,27.3410883 L74.375784,17.2455181 L72.3096911,20.9115622 C73.2016787,26.2255201 72.9007304,31.8798467 71.406507,37.8740333 C64.7710558,51.3442907 45.2119633,84.8734079 12.7310955,138.458163 C3.60238805,153.53631 13.9696656,160.415422 23.9655926,146.255608 L82.1756709,53.4687546 L94.3128432,59.4052802 L99.6087862,51.8405134 L101.879979,53.236076 L108.311348,41.5400774 L105.314419,34.6731766 L112.211461,19.0786249 C112.175666,15.1905864 111.021579,11.6795483 108.74886,8.54551043 L93.8753316,0.0781813552 C89.3855363,0.100058567 84.8741963,0.856942273 80.3419901,2.34866288 L77.1401313,7.41026966 L97.0771904,18.8459464 L93.4099984,27.3410883" id="Fill-4" fill="#1A1918"></path>
                    </g>
                    <path d="M61.5821319,144.692549 L56.3266707,121.887621 C51.3793886,120.468173 46.8699206,118.02483 42.7982666,114.557423 L28.3360172,101.00417 C26.0638519,96.2219251 26.8032449,93.1443068 31.123676,91.356772 C29.0772718,87.0273877 30.3974835,83.7656412 34.5144927,81.9865838 C33.1895424,77.8828666 34.5667867,73.6038377 40.9725464,73.485833 C39.5614549,68.3349931 43.6407245,63.9442327 48.8127523,65.987614 L52.6682916,69.0203023 L66.1699563,72.6326721 L71.9273721,82.2632846 L73.2039208,102.836804 C76.5884757,112.323301 84.8830808,122.585138 94.5755769,131.311386 C85.5375172,138.946091 74.1123808,143.834472 61.5821319,144.692549" id="Fill-6" fill="#1A1918"></path>
                    <path d="M77.8420172,141.369589 L70.2737772,124.523531 C72.8845476,132.825245 74.1918783,138.852791 74.1947541,142.606 C71.6465758,143.374469 69.0236253,143.969923 66.3397743,144.378608 L64.5547131,130.809328 L64.2346471,144.65944 L63.936573,144.692549 L59.1861651,122.21948 C53.3085906,119.336615 50.1053936,116.772277 49.5767435,114.527143 L52.7665762,105.58566 L57.2409018,112.457403 C56.1289602,102.154374 57.4902555,94.4749405 61.3249567,89.420461 L59.6133145,81.1421783 C50.4880518,81.4875312 46.2992818,77.7193811 48.8173481,71.9421055 C54.3027912,73.8301706 58.5673484,74.0831578 65.3322094,74.7390567 L70.4671362,83.6805393 C70.9221983,95.1350841 71.5315416,102.319749 72.2958428,105.234025 C77.0230747,116.015522 85.0455309,126.003761 92.5547312,133.160071 C88.1174534,136.578284 83.1681039,139.360293 77.8420172,141.369589" id="Fill-7" fill="#FFFFFF"></path>
                    <path d="M84.3502554,52.5419872 L76.0806708,66.3397719 C72.6232316,72.2050718 79.9074974,74.6461362 83.8575103,71.1042794 L93.3630695,56.9366827 L84.3502554,52.5419872" id="Fill-8" fill="#1A1918"></path>
                    <path d="M47.7990822,67.3768343 C45.2484799,66.1359888 40.9286578,69.1286963 42.9685928,72.8984009 L47.3730134,77.5237729 L51.398877,86.4419561 C53.3880528,88.7084105 56.5041834,87.6647517 56.9878476,85.3574296 L56.4199267,81.8179463 C49.0783142,82.4309618 45.2739449,76.5599764 47.2309904,70.9163175 L51.58807,71.4349967 L47.7990822,67.3768343" id="Fill-9" fill="#FFFFFF"></path>
                    <path d="M40.4908707,75.1754586 C36.2662969,75.4709681 34.5316664,78.7719514 36.1867454,81.7674509 L42.7649861,86.2227471 L45.6830083,93.174321 C47.4735122,95.6689082 51.3628457,93.12259 50.3578059,89.5076701 L47.2960119,80.8640167 L40.4908707,75.1754586" id="Fill-10" fill="#FFFFFF"></path>
                    <path d="M34.7704266,84.4713532 C31.2590117,84.4666568 30.0955396,88.064595 32.0998187,90.9441532 L38.3363019,95.5041806 L41.3261604,100.352868 C43.7219056,102.946114 47.5115978,100.494599 46.2168403,97.5014883 L41.8767397,89.6721023 L34.7704266,84.4713532" id="Fill-11" fill="#FFFFFF"></path>
                    <path d="M31.5535902,92.9589004 C28.3753122,93.5436262 27.5197401,95.8080913 28.9868739,99.7524642 L33.8737366,105.17583 L37.9968296,107.416885 C40.9631769,108.186527 43.1742864,103.933287 40.2656143,102.075705 L36.5163862,99.1700961 L31.5535902,92.9589004" id="Fill-12" fill="#FFFFFF"></path>
                    <path d="M55.3711711,69.9308794 L74.034794,36.7189982 L75.4428041,31.452805 L79.9562558,32.3066635 L75.3344826,24.4555618 L89.1031591,31.2363815 L89.861071,30.2626447 L76.4056806,23.7099151 L77.801843,21.0167949 L93.4116463,28.7596848 L90.9324382,30.6954918 L95.2409254,30.0462212 L103.304952,34.3505132 L105.892313,40.795031 L100.404137,49.2952341 L87.0570678,44.5582642 L67.5299195,73.9629512 L64.837792,71.6007222 L55.3711711,69.9308794" id="Fill-13" fill="#FFFFFF"></path>
                    <g id="Group-17" fill="#FFFFFF">
                        <path d="M104.091456,32.8117481 L96.1453365,28.7088381 L101.64604,17.361179 L80.3419901,6.7999124 L82.3504041,3.6579038 C86.4761436,2.633745 90.4342748,2.19704871 94.224289,2.34747575 L107.583915,9.33190293 C109.586052,12.0740164 110.488558,15.2741947 110.291432,18.9320985 L104.091456,32.8117481" id="Fill-14"></path>
                        <path d="M33.0406926,108.397855 L12.4985137,142.605166 C8.49593575,150.2666 14.8589389,154.003024 19.9570771,147.607925 L41.6608077,114.422738 L33.0406926,108.397855" id="Fill-16"></path>
                    </g>
                    <path d="M34.8431684,108.721497 L17.1148055,138.551043 C15.5962162,141.819517 17.2577515,142.669048 22.0995812,141.099806 C18.8192925,141.236262 17.9040645,139.942654 19.3542366,137.218983 L36.779391,110.763229 L34.8431684,108.721497" id="Fill-18" fill="#1A1918"></path>
                    <path d="M56.9878476,70.5950425 L77.4216635,38.0016845 C80.1772167,35.3038041 84.2423463,37.3592672 83.0429783,41.3627549 L80.6724747,46.777245 L80.8852384,42.3508142 C81.1396704,39.5512844 80.3141269,39.0799854 78.408608,40.9365766 L59.8032671,71.1337672 L56.9878476,70.5950425" id="Fill-19" fill="#1A1918"></path>
                    <path d="M90.5338856,40.2823514 L99.7541338,44.8627737 L102.25479,39.2601795 L93.7981283,34.7585454 L90.6102274,36.5473462 L93.6454446,36.4687309 L99.3152102,40.1251208 L98.4751145,41.9927098 L90.5338856,40.2823514" id="Fill-20" fill="#1A1918"></path>
                    <path d="M100.848188,31.9293614 L104.679805,24.6543171 L99.4256065,30.7103634 L100.848188,31.9293614" id="Fill-21" fill="#1A1918"></path>
                    <path d="M85.7859745,54.967002 L78.0184777,67.932297 C77.9078843,69.487844 78.4603319,70.4203336 79.6754744,70.7295981 C78.8210152,70.0684697 78.7495362,69.1587892 79.4619029,68.0012275 L87.3005325,55.5377325 L85.7859745,54.967002" id="Fill-22" fill="#FFFFFF"></path>
                    <path d="M88.3356826,46.8836193 L97.80893,51.5514607 L94.8420007,56.5836785 L85.683856,52.1522685 L88.3356826,46.8836193" id="Fill-23" fill="#FFFFFF"></path>
                    <path d="M59.8170315,113.167357 L68.7087524,133.779983 L68.1372214,124.732886 L66.998884,127.025005 L66.884814,122.671827 L65.6303818,123.932399 L65.6303818,119.350365 L64.4895133,120.49634 L64.1479783,116.831933 L62.895571,118.089962 L62.7794761,114.770874 L61.9825049,115.916849 L59.8170315,113.167357" id="Fill-24" fill="#1A1918"></path>
                    <path d="M37.9918984,102.25479 C35.6276817,102.335343 34.992132,103.413127 36.0854256,105.488143 C36.2787541,103.884658 36.9143038,102.806873 37.9918984,102.25479" id="Fill-25" fill="#1A1918"></path>
                    <path d="M44.8627737,96.7002926 C42.7598442,95.6216291 41.6820599,96.2606209 41.6294206,98.6172682 C42.576399,97.3009061 43.6541834,96.6619142 44.8627737,96.7002926" id="Fill-26" fill="#1A1918"></path>
                    <path d="M50.1169724,89.0209888 C48.0140429,87.9424513 46.9360825,88.5814732 46.8836193,90.9380547 C47.8305978,89.6216305 48.9083821,88.9827854 50.1169724,89.0209888" id="Fill-27" fill="#1A1918"></path>
                    <path d="M55.7753402,82.9584802 C53.6724108,81.8799586 52.5946264,82.5187943 52.5419872,84.8755177 C53.4889656,83.559113 54.56675,82.9201005 55.7753402,82.9584802" id="Fill-28" fill="#1A1918"></path>
                    <path d="M27.8876701,96.7857004 L33.7799957,104.079958 L36.3752219,105.488143 L34.147373,103.763376 L34.1065724,101.56415 L33.4291452,102.671607 L32.8987378,99.7602784 L32.1641553,101.010255 L31.9601525,98.4310306 L31.3643264,99.6811744 L30.833919,97.1416685 L30.0587081,98.4310306 L29.5852838,96.7064295 L28.8915019,97.4422304 L28.5242967,96.1922534 L27.8876701,96.7857004" id="Fill-29" fill="#1A1918"></path>
                    <path d="M30.9857322,89.1197722 L37.9441137,94.0735374 L40.7937758,97.80893 L41.2252515,95.5883995 L40.5089298,96.2964439 L40.3461607,94.3815673 L39.8169892,94.9046241 L39.4914509,93.392138 L39.060147,93.8184581 L38.6937447,91.5173138 L37.7171297,92.748415 L36.8787312,90.2702595 L36.2276546,91.5577056 L35.1449306,89.3210523 L34.5752385,90.4715397 L33.5333786,88.7981653 L33.0857634,89.642829 L32.4345151,88.5566631 L31.9868999,89.160164 L30.716854,87.7047017 L30.9857322,89.1197722" id="Fill-30" fill="#1A1918"></path>
                    <path d="M35.1627145,80.2266392 L43.4841256,85.2361659 L45.6921439,90.5338856 L46.4794502,88.3222246 L45.5491997,88.6000818 L45.6921439,86.5941006 L44.9050089,86.9541264 L44.9050089,84.4544448 L44.0565875,85.3081711 L43.054608,81.8004171 L42.2061867,83.3023621 L40.642188,80.9363551 L39.7117663,81.8725945 L38.7202295,79.6507701 L37.9330944,80.4426547 L37.1562308,79.290572 L36.7268844,79.9386185 L35.2342722,78.0046425 L35.1627145,80.2266392" id="Fill-31" fill="#1A1918"></path>
                    <path d="M41.6294206,70.4648162 L47.2877884,75.5796277 L46.2657049,72.4891122 L45.6291058,73.3602732 L44.9923321,71.2487273 L43.9247024,72.2713219 L43.651949,70.6389815 L43.0607215,71.2487273 L42.4478553,69.9212598 L41.6294206,70.4648162" id="Fill-32" fill="#1A1918"></path>
                    <path d="M62.3854682,90.5338856 C58.3125407,95.2713256 57.2123483,101.468642 59.0852269,109.125666 L62.1390412,105.607403 L59.9964024,106.27444 L62.3854682,103.681641 L59.8320618,102.931076 L61.8106958,100.996961 L60.0784887,99.2379152 L62.4675546,98.1539175 L60.2428293,96.6451167 L62.8039576,94.8859004 L61.0717506,93.7187149 L63.0503846,92.4598183 L61.646523,92.2095732 L62.3854682,90.5338856" id="Fill-33" fill="#1A1918"></path>
                    <path d="M93.9278236,4.44586045 L87.2202969,5.32375507 L85.683856,7.32373151 L93.0637569,10.5083974 L89.867632,7.8186962 L95.8346764,9.50511407 L92.8169295,7.13556169 L97.1859114,8.32025117 L94.2917489,6.19488598 L102.65896,8.9473683 L93.9278236,4.44586045" id="Fill-34" fill="#1A1918"></path>
                    <path d="M64.2742053,72.7504438 L79.2171499,49.7128032 L75.5088184,51.22287 L76.7070742,52.084068 L73.272017,53.8645108 L73.8185658,55.1082749 L70.9259402,57.0508076 L71.9095907,58.0241956 L69.508962,60.0169677 L70.1647862,61.2025152 L66.7257835,63.3074773 L67.8734329,65.0879201 L64.4383758,67.084596 L65.855354,68.057984 L63.8372751,69.5680507 L65.1449779,70.0507561 L63.4545537,71.4026366 L64.2742053,72.7504438" id="Fill-35" fill="#1A1918"></path>
                    <path d="M40.0127441,112.359019 L22.6334714,139.438351 L23.558066,135.559188 L24.0204486,136.016812 L25.4794277,132.285237 L25.9416397,132.742691 L27.1694276,128.787371 L27.7857102,130.612631 L29.8561947,125.670633 L30.2414566,126.809626 L31.5511425,121.334015 L32.3938391,123.083117 L32.9330011,120.042706 L33.698577,120.800233 L34.3148596,118.141119 L34.9313129,118.751397 L35.3116268,115.934731 L36.3131714,116.392355 L37.232818,113.956987 L40.0127441,112.359019" id="Fill-36" fill="#1A1918"></path>
                    <path d="M48.5002958,111.694933 C50.453148,116.729798 53.4171697,119.241439 57.3920167,119.229854 L54.0774655,118.127615 L55.1904571,117.025205 L52.8177607,116.371017 L54.0774655,115.632159 L51.0443012,115.208129 L52.7321062,112.942831 L50.9586468,113.451531 L51.6435382,111.694933 L49.3564961,110.338173 L48.5002958,111.694933" id="Fill-37" fill="#1A1918"></path>
                    <path d="M79.621319,28.2918392 L81.3017435,33.3165938 L85.2973347,34.7585454 L82.2052475,31.9911826 L86.0880251,33.1126054 L81.8097364,30.549231 L85.4949244,31.1610251 L79.621319,28.2918392" id="Fill-38" fill="#1A1918"></path>
                    <path d="M49.030834,73.1546129 C47.4690212,76.188631 49.2894432,79.4049009 55.3711711,80.4296573 L50.8680747,78.0197869 L51.9955973,78.0197869 L50.1208891,76.8113968 L50.9053757,76.5788745 L49.411171,75.5326971 L50.1208891,75.176831 L49.030834,74.2467419 L49.8221481,73.3871352 L49.030834,73.1546129" id="Fill-39" fill="#1A1918"></path>
                </g>
                <g id="hamburger-menu" transform="translate(148.000000, 150.000000)" fill="#3FAAF5" sketch:type="MSShapeGroup">
                    <rect id="hamburger" x="0" y="0" width="23" height="5" rx="4"></rect>
                    <rect id="hamburger" x="0" y="8" width="23" height="5" rx="4"></rect>
                    <rect id="hamburger" x="0" y="16" width="23" height="5" rx="4"></rect>
                </g>
            </g>
        </g>
    </g>
</svg>