<?xml version="1.0" encoding="UTF-8" standalone="no"?>
<svg width="180px" height="180px" viewBox="0 0 180 180" version="1.1" xmlns="http://www.w3.org/2000/svg" xmlns:xlink="http://www.w3.org/1999/xlink" xmlns:sketch="http://www.bohemiancoding.com/sketch/ns">
    <!-- Generator: Sketch Beta 3.4 (15009) - http://www.bohemiancoding.com/sketch -->
    <title>sewer+drain</title>
    <desc>Created with Sketch Beta.</desc>
    <defs>
        <linearGradient x1="50%" y1="0%" x2="50%" y2="100%" id="linearGradient-1">
            <stop stop-color="#7CDAFF" offset="0%"></stop>
            <stop stop-color="#46B3FF" offset="100%"></stop>
        </linearGradient>
    </defs>
    <g id="WireFrame-Storyboard" stroke="none" stroke-width="1" fill="none" fill-rule="evenodd" sketch:type="MSPage">
        <g id="Landing-Page-v2-iPhone-6+" sketch:type="MSArtboardGroup" transform="translate(-221.000000, -69.000000)">
            <g id="sewer+drain" sketch:type="MSLayerGroup" transform="translate(221.000000, 69.000000)">
                <rect id="Rectangle-159-Copy-2" fill="#FCFCFC" sketch:type="MSShapeGroup" x="0" y="0" width="180" height="180" rx="10.4046243"></rect>
                <g id="Group" transform="translate(40.578035, 49.942197)" stroke-width="7.28323699" sketch:type="MSShapeGroup">
                    <path d="M96.2743203,1.2423432 L17.5235121,1.2423432 C17.5235121,1.2423432 2.20950643e-07,1.65392085 0,18.6786736 C-2.20950576e-07,35.7034264 17.4162131,36.0082389 17.4162131,36.0082389 L79.3706856,36.0082389 C79.3706856,36.0082389 99.8843898,33.793354 99.8843931,56.4198881 C99.8843963,79.0464223 73.8021019,79.0464223 73.8021019,79.0464223 L0.207430407,79.046422" id="Path-1113" stroke="url(#linearGradient-1)"></path>
                    <path d="M40.5780347,36 L56.8092486,36" id="Path-1114" stroke="#4A4A4A"></path>
                    <path d="M40.5780347,1.2423432 L56.8092486,1.2423432" id="Path-1114-Copy-2" stroke="#4A4A4A"></path>
                    <path d="M40.5780347,79.0543353 L56.8092486,79.0543353" id="Path-1114-Copy" stroke="#4A4A4A"></path>
                </g>
                <g id="hamburger-menu" transform="translate(148.000000, 150.000000)" fill="#3FAAF5" sketch:type="MSShapeGroup">
                    <rect id="hamburger" x="0" y="0" width="23" height="5" rx="4"></rect>
                    <rect id="hamburger" x="0" y="8" width="23" height="5" rx="4"></rect>
                    <rect id="hamburger" x="0" y="16" width="23" height="5" rx="4"></rect>
                </g>
            </g>
        </g>
    </g>
</svg>