<?xml version="1.0" encoding="UTF-8" standalone="no"?>
<svg width="173px" height="173px" viewBox="0 0 173 173" version="1.1" xmlns="http://www.w3.org/2000/svg" xmlns:xlink="http://www.w3.org/1999/xlink" xmlns:sketch="http://www.bohemiancoding.com/sketch/ns">
    <!-- Generator: Sketch Beta 3.4 (15009) - http://www.bohemiancoding.com/sketch -->
    <title>sewer+drain</title>
    <desc>Created with Sketch Beta.</desc>
    <defs>
        <linearGradient x1="50%" y1="0%" x2="50%" y2="100%" id="linearGradient-1">
            <stop stop-color="#7CDAFF" offset="0%"></stop>
            <stop stop-color="#46B3FF" offset="100%"></stop>
        </linearGradient>
    </defs>
    <g id="WireFrame-Storyboard" stroke="none" stroke-width="1" fill="none" fill-rule="evenodd" sketch:type="MSPage">
        <g id="Landing-Page-v2" sketch:type="MSArtboardGroup" transform="translate(-679.000000, -236.000000)">
            <g id="sewer+drain" sketch:type="MSLayerGroup" transform="translate(679.000000, 236.000000)">
                <rect id="base" fill="#FCFCFC" sketch:type="MSShapeGroup" x="0" y="0" width="173" height="173" rx="10"></rect>
                <g id="S" transform="translate(35.000000, 45.000000)" sketch:type="MSShapeGroup">
                    <path d="M96.5303189,0.694029851 L20.8420422,0.694029851 C20.0576705,0.711487271 18.953967,0.814002255 17.5724123,1.07015648 C15.2891233,1.49350137 13.0006747,2.21424479 10.8327215,3.31828804 C4.44546756,6.57103561 0.500000111,12.4134591 0.5,20.9522807 C0.499999889,29.4908756 4.42740506,35.3183063 10.7885836,38.5387372 C12.9484736,39.6322101 15.2279159,40.3405665 17.5020163,40.7508647 C18.8779684,40.9991169 19.9774315,41.0951273 20.6776695,41.1073826 L80.2840478,41.1079185 L80.4724495,41.1079185 L80.6597626,41.0876941 C80.6703982,41.0865458 80.7404587,41.0806303 80.8642304,41.0733526 C83.1774553,40.9373376 86.0543942,41.2777045 88.7229906,42.4612992 C93.6155828,44.6312964 96.4999988,49.0921117 96.5,57.2257819 C96.5000012,65.2320548 92.7093298,70.1646978 86.0732504,73.0431154 C83.6430863,74.0972057 80.9989575,74.7853445 78.348055,75.1686233 C77.4178977,75.3031093 76.5575557,75.3892268 75.7926987,75.4366209 C75.3531923,75.4638548 75.0578653,75.4723947 74.9320202,75.4723947 L4.19936368,75.4723945 L4.19936366,82.4723945 L74.9320202,82.4723947 C75.8732487,82.4723947 77.4084081,82.3772691 79.3497291,82.0965847 C82.5741344,81.6303865 85.8053133,80.7894669 88.8587698,79.4650218 C97.8901802,75.5476229 103.500002,68.2477956 103.5,57.2257809 C103.499998,46.3311657 98.9909328,39.3577927 91.5610572,36.0624417 C87.709228,34.3540511 83.7835525,33.8896096 80.4533478,34.0854219 C80.2131941,34.0995427 80.0298218,34.1150256 79.908333,34.1281429 L80.2840478,34.1079185 L20.7389159,34.1079185 C20.7481372,34.1075439 20.5837314,34.0993095 20.3241435,34.076641 C19.8547758,34.0356536 19.3225362,33.9663067 18.7449043,33.862089 C17.0958212,33.5645579 15.4520802,33.0537512 13.9503323,32.2934714 C9.84968825,30.217466 7.49999993,26.7310302 7.5,20.9522808 C7.50000007,15.1737583 9.87029841,11.6638354 14.0093207,9.55601337 C15.5255642,8.78385721 17.1844692,8.26138759 18.8485339,7.95285316 C19.4313212,7.8447985 19.9683499,7.77198402 20.4420569,7.72798483 C20.7043744,7.70362007 20.8708591,7.69431827 20.9242246,7.69306487 L96.5303189,7.69402985 L96.5303189,0.694029851 L96.5303189,0.694029851 Z" id="Shape" fill="url(#linearGradient-1)"></path>
                    <path d="M43,41.1 L58.6,41.1 L58.6,34.1 L43,34.1 L43,41.1 L43,41.1 Z" id="Shape" fill="#4A4A4A"></path>
                    <path d="M43,7.69402985 L58.6,7.69402985 L58.6,0.694029851 L43,0.694029851 L43,7.69402985 L43,7.69402985 Z" id="Shape" fill="#4A4A4A"></path>
                    <path d="M43,82.48 L58.6,82.48 L58.6,75.48 L43,75.48 L43,82.48 L43,82.48 Z" id="Shape" fill="#4A4A4A"></path>
                </g>
            </g>
        </g>
    </g>
</svg>