<?xml version="1.0" encoding="UTF-8" standalone="no"?>
<svg width="285px" height="381px" viewBox="0 0 285 381" version="1.1" xmlns="http://www.w3.org/2000/svg" xmlns:xlink="http://www.w3.org/1999/xlink" xmlns:sketch="http://www.bohemiancoding.com/sketch/ns">
    <!-- Generator: Sketch Beta 3.4 (15009) - http://www.bohemiancoding.com/sketch -->
    <title>Plumbing Wrench</title>
    <desc>Created with Sketch Beta.</desc>
    <defs></defs>
    <g id="WireFrame-Storyboard" stroke="none" stroke-width="1" fill="none" fill-rule="evenodd" sketch:type="MSPage">
        <g id="Desktop-Landing" sketch:type="MSArtboardGroup" transform="translate(-112.000000, -241.000000)">
            <g id="Landing-Page-Content" sketch:type="MSLayerGroup" transform="translate(112.000000, 241.000000)">
                <g id="Group" sketch:type="MSShapeGroup">
                    <g id="Plumbing-Wrench">
                        <path d="M0,216.5 C0,137.798524 63.7985238,74 142.5,74 C221.201476,74 285,137.798524 285,216.5 C285,295.201897 221.201476,359 142.5,359 C63.7985238,359 0,295.201897 0,216.5" id="Fill-1" fill="#C9374A"></path>
                        <g id="Group-5">
                            <path d="M149.951973,358.220144 L123.221996,319.525566 L141.672283,358.420715 C140.282541,358.414421 138.897415,358.388825 137.517327,358.343088 L119.064941,321.552251 L130.45067,357.935653 C129.068063,357.821521 127.690493,357.688087 126.319219,357.534512 L114.666959,322.981001 L120.237261,356.72216 C118.873122,356.509421 117.516119,356.278219 116.165412,356.027296 L110.112415,323.783703 L110.858284,354.937166 C109.521848,354.635891 108.192128,354.315733 106.869963,353.977113 L105.491134,323.94483 L102.150884,352.680119 C100.844669,352.297021 99.5468483,351.89546 98.2570029,351.476276 L100.891679,323.461867 L93.9614359,350.003048 C92.68838,349.543583 91.4237187,349.066074 90.1674521,348.571361 L96.4042931,322.343204 L86.1560457,346.920221 C84.9161487,346.387744 83.6850663,345.837644 82.4636377,345.27076 L92.1162813,320.6115 L78.6121502,343.412336 C77.4058321,342.808107 76.2091679,342.187094 75.0225773,341.549296 L88.1115906,318.299904 L71.2206186,339.430298 C70.0487187,338.753478 68.887732,338.061132 67.7368189,337.352002 L84.4670324,315.454153 L63.8849116,334.891867 C62.7503682,334.141616 61.6271576,333.37542 60.5156996,332.593698 L81.2548012,312.127956 L56.5223417,329.680391 C55.4301915,328.854192 54.3502135,328.012887 53.2828277,327.156056 L78.5361782,308.38803 L49.0686892,323.63852 C48.027327,322.735113 46.9993962,321.817021 45.9853166,320.883823 L76.3653093,304.305707 L41.4886966,316.564424 C40.511134,315.583391 39.5478424,314.588091 38.5984021,313.578945 L74.7837482,299.961132 L33.7928571,308.202565 C32.8963034,307.147682 32.0148601,306.078952 31.148947,304.997633 L73.8221355,295.439065 L26.0676362,298.251667 C25.2739175,297.131746 24.4969882,295.999236 23.7355891,294.855816 L73.4993594,290.827203 L18.5119882,286.376468 C17.8479676,285.209131 17.1998969,284.031304 16.5681959,282.843406 L73.8221355,286.21534 L11.4885641,272.253453 C10.9785862,271.066814 10.4849779,269.872622 10.0068999,268.669619 L74.7837482,281.693273 L5.55015464,255.638412 C5.21352725,254.471494 4.89201031,253.298283 4.58434462,252.119197 L76.3653093,277.349118 L1.43759205,236.462111 C1.28019146,235.358554 1.13538292,234.250801 1.00274669,233.139691 L78.5361782,273.267215 L0.00545655376,214.902463 C0.0142709867,213.900869 0.0331590574,212.902213 0.0625405007,211.906074 L81.2548012,269.526449 L2.13854934,191.454598 C2.2883947,190.599026 2.44579529,189.746392 2.61117084,188.896275 L84.4670324,266.201091 L8.709919,167.042904 C8.96259941,166.356433 9.22031664,165.672479 9.48307069,164.991043 L88.1115906,263.354921 L20.2962813,142.898917 C20.6060457,142.384903 20.9187482,141.872567 21.2348085,141.362749 L92.1162813,261.043325 L37.0646907,120.402294 L38.0405744,119.342376 L96.4042931,259.311621 L58.7570103,100.987659 L59.6720324,100.328461 L100.891679,258.192958 L84.7012445,86.0384438 L85.4949632,85.6897533 L105.491134,257.709575 L113.800626,76.7559747 L114.452054,76.6250584 L110.112415,257.871122 L144.643586,73.9202941 L145.165317,73.9299449 L114.666959,258.673824 L175.649823,77.8284813 L176.073336,77.9308645 L119.064941,260.102574 L205.139978,88.485152 L205.507246,88.6668403 L123.221996,262.129259 L231.535427,105.33559 L231.880029,105.614207 L127.055854,264.714436 L253.504772,127.381979 L253.838461,127.800324 L130.492644,267.807753 L270.02218,153.347884 L270.323969,153.963023 L133.465206,271.349207 L280.42405,181.774345 L280.637275,182.643763 L135.916038,275.270402 L284.520243,211.071482 L284.55634,212.233365 L137.79687,279.492872 L282.674249,239.678792 L282.423667,241.137753 L139.071605,283.937313 L275.523645,266.290047 C275.306642,266.866583 275.085862,267.4406 274.861723,268.013359 L139.715059,288.515607 L264.038439,289.879318 C263.649764,290.519214 263.256473,291.155333 262.858564,291.788095 L139.715059,293.139218 L249.450972,309.786568 C248.8688,310.45122 248.281171,311.110417 247.687666,311.764579 L139.071605,297.717512 L233.027585,325.769267 C232.247297,326.415456 231.459875,327.053253 230.665317,327.683078 L137.79687,302.161533 L215.889809,337.951616 C214.923579,338.536123 213.949794,339.110141 212.968454,339.67199 L135.916038,306.384423 L198.928741,346.715035 C197.803851,347.203034 196.671826,347.677186 195.532666,348.136652 L133.465206,310.305198 L182.76433,352.590324 C181.518976,352.958316 180.267327,353.310363 179.008122,353.645627 L130.492644,313.847072 L167.763424,356.152338 C166.438741,356.391093 165.107342,356.612224 163.769647,356.814472 L127.055854,316.940389 L154.070412,357.942786 C152.702916,358.05482 151.330383,358.147553 149.951973,358.220144" id="Fill-2" fill="#FFFFFF"></path>
                            <path d="M231.116112,67.647641 L184.021436,42.6690628 L178.909485,51.7396322 C181.116451,64.887489 180.371841,78.8774901 176.674816,93.7083767 C160.257305,127.036645 111.863969,209.99478 31.4994256,342.574807 C8.91307069,379.881337 34.5639102,396.901715 59.2959499,361.867338 L203.320007,132.293019 L233.349941,146.98124 L246.453225,128.264405 L252.072636,131.717323 L267.985206,102.778946 L260.570169,85.7887797 L277.634912,47.2045573 C277.546348,37.5847269 274.690891,28.8976751 269.067703,21.143402 L232.267445,0.193437225 C221.158741,0.247566079 209.99673,2.12025661 198.783093,5.81108921 L190.861016,18.334576 L240.189521,46.6288612 L231.116112,67.647641" id="Fill-4" fill="#1A1918"></path>
                        </g>
                        <path d="M152.367232,358 L139.364108,301.575779 C127.123485,298.063764 115.966106,292.018417 105.891973,283.439318 L70.1093057,249.9057 C64.4874876,238.073414 66.3169024,230.458735 77.0065638,226.035995 C71.9433264,215.324182 75.2098096,207.253931 85.3961621,202.852166 C82.1179546,192.698701 85.5255485,182.111477 101.374754,181.819509 C97.8834151,169.07524 107.976392,158.211569 120.773083,163.267327 L130.312504,170.77084 L163.718481,179.708608 L177.963546,203.536782 L181.121998,254.440025 C189.496104,277.911628 210.018713,303.301583 234,324.892169 C211.637927,343.782044 183.36972,355.876934 152.367232,358" id="Fill-6" fill="#1A1918"></path>
                        <path d="M192.597631,349.778292 L173.872202,308.097579 C180.331801,328.637776 183.566414,343.551202 183.57353,352.837434 C177.268797,354.738791 170.779062,356.212069 164.138646,357.223242 L159.722027,323.649971 L158.930116,357.918081 L158.192618,358 L146.439103,302.39687 C131.896739,295.264052 123.971352,288.919334 122.663359,283.364399 L130.555681,261.241278 L141.62611,278.243423 C138.874931,252.751548 142.243063,233.751004 151.730926,221.245152 L147.495961,200.762928 C124.918129,201.617404 114.554225,192.294203 120.784455,178 C134.356602,182.671473 144.908019,183.297417 161.645718,184.920249 L174.350614,207.04337 C175.476534,235.384339 176.984178,253.160722 178.875221,260.371258 C190.571393,287.046964 210.420649,311.75998 229,329.466207 C218.021235,337.923589 205.775497,344.80687 192.597631,349.778292" id="Fill-7" fill="#FFFFFF"></path>
                        <path d="M208.70039,130 L188.239687,164.13864 C179.68525,178.650634 197.708066,184.690344 207.481234,175.927041 L231,140.873407 L208.70039,130" id="Fill-8" fill="#1A1918"></path>
                        <path d="M118.265049,166.704553 C111.954319,163.634438 101.266164,171.03903 106.313395,180.366077 L117.210864,191.810227 L127.171703,213.8757 C132.093346,219.483388 139.803312,216.901155 141,211.192352 L139.594843,202.434921 C121.43014,203.951651 112.017325,189.42559 116.85947,175.461983 L127.639807,176.745306 L118.265049,166.704553" id="Fill-9" fill="#FFFFFF"></path>
                        <path d="M100.182987,186 C89.7304965,186.731153 85.4386534,194.898485 89.5336693,202.309985 L105.809629,213.333331 L113.029434,230.532996 C117.45952,236.705133 127.082554,230.405003 124.595873,221.460926 L117.020347,200.074697 L100.182987,186" id="Fill-10" fill="#FFFFFF"></path>
                        <path d="M86.0293967,209.000011 C77.3414128,208.988391 74.4627366,217.890452 79.4217473,225.015089 L94.8521272,236.297562 L102.24967,248.294242 C108.177251,254.710482 117.553752,248.644913 114.350248,241.239324 L103.61192,221.867766 L86.0293967,209.000011" id="Fill-11" fill="#FFFFFF"></path>
                        <path d="M78.0702625,230 C70.2065299,231.446735 68.0896634,237.049502 71.719663,246.808715 L83.8107957,260.227269 L94.0122009,265.772116 C101.351572,267.676373 106.822325,257.152956 99.6256546,252.556905 L90.3492703,245.367813 L78.0702625,230" id="Fill-12" fill="#FFFFFF"></path>
                        <path d="M137,173.023801 L183.177754,90.8505753 L186.66147,77.8208986 L197.828705,79.9335252 L186.393459,60.5082375 L220.46008,77.2854209 L222.335314,74.87619 L189.04383,58.6633497 L192.498231,52 L231.120189,71.1575488 L224.986104,75.9471452 L235.646213,74.3407123 L255.598323,84.990442 L262,100.935543 L248.421091,121.966846 L215.397617,110.246579 L167.083318,183 L160.422424,177.155345 L137,173.023801" id="Fill-13" fill="#FFFFFF"></path>
                        <g id="Group-17" fill="#FFFFFF">
                            <path d="M257.5443,81.1832115 L237.883918,71.0317434 L251.493822,42.9552324 L198.783093,16.8244229 L203.752334,9.05042841 C213.960287,6.51644273 223.753542,5.43596366 233.130839,5.80815198 L266.185383,23.0891035 C271.139094,29.8736729 273.372084,37.7915914 272.884352,46.8420198 L257.5443,81.1832115" id="Fill-14"></path>
                            <path d="M81.7496686,268.199243 L30.9239691,352.835372 C21.0207437,371.791381 36.7641605,381.036086 49.3780339,365.213257 L103.077658,283.106078 L81.7496686,268.199243" id="Fill-16"></path>
                        </g>
                        <path d="M86.2093754,269 L42.3456521,342.804614 C38.5883407,350.89151 42.6993309,352.99343 54.6790427,349.110793 C46.562914,349.448414 44.298446,346.247754 47.8864789,339.508814 L91,274.051679 L86.2093754,269" id="Fill-18" fill="#1A1918"></path>
                        <path d="M141,174.667081 L191.557587,94.0242129 C198.375408,87.3490856 208.4334,92.4347364 205.465909,102.340212 L199.600782,115.736808 L200.127204,104.78488 C200.756723,97.858251 198.714153,96.6921575 193.999496,101.285757 L147.965944,176 L141,174.667081" id="Fill-19" fill="#1A1918"></path>
                        <path d="M224,99.6670657 L246.812846,111 L253,97.1379959 L232.076428,86 L224.188886,90.4258721 L231.698656,90.2313611 L245.726856,99.2780438 L243.648281,103.898854 L224,99.6670657" id="Fill-20" fill="#1A1918"></path>
                        <path d="M249.519768,79 L259,61 L246,75.9839407 L249.519768,79" id="Fill-21" fill="#1A1918"></path>
                        <path d="M212.252663,136 L193.034231,168.078885 C192.7606,171.927637 194.127472,174.234814 197.133992,175 C195.019879,173.364228 194.843025,171.113486 196.605571,168.249433 L216,137.412108 L212.252663,136" id="Fill-22" fill="#FFFFFF"></path>
                        <path d="M218.561181,116 L242,127.549228 L234.659189,140 L212,129.035754 L218.561181,116" id="Fill-23" fill="#FFFFFF"></path>
                        <path d="M148,280 L170,331 L168.585911,308.615567 L165.769423,314.286754 L165.48719,303.51607 L162.383459,306.634992 L162.383459,295.298071 L159.560709,298.133455 L158.715679,289.066937 L155.616958,292.179568 L155.329715,283.96744 L153.35784,286.802824 L148,280" id="Fill-24" fill="#1A1918"></path>
                        <path d="M94,253 C88.1504273,253.199304 86.5779427,255.86597 89.2829827,261 C89.7613183,257.032637 91.3338029,254.36597 94,253" id="Fill-25" fill="#1A1918"></path>
                        <path d="M111,239.256997 C105.796907,236.588155 103.130241,238.169156 103,244 C105.343025,240.743041 108.009692,239.16204 111,239.256997" id="Fill-26" fill="#1A1918"></path>
                        <path d="M124,220.256773 C118.796907,217.588243 116.129805,219.169319 116,225 C118.343025,221.742888 121.009692,220.16225 124,220.256773" id="Fill-27" fill="#1A1918"></path>
                        <path d="M138,205.256843 C132.796907,202.588353 130.130241,204.168967 130,210 C132.343025,206.742936 135.009692,205.161884 138,205.256843" id="Fill-28" fill="#1A1918"></path>
                        <path d="M69,239.468314 L83.5788609,257.515852 L90,261 L84.4878301,256.732559 L84.3868809,251.29121 L82.7107825,254.031292 L81.3984423,246.828049 L79.5809298,249.920757 L79.0761835,243.539209 L77.6019837,246.632329 L76.2896434,240.349054 L74.3716076,243.539209 L73.2002556,239.272181 L71.4836923,241.092708 L70.5751491,238 L69,239.468314" id="Fill-29" fill="#1A1918"></path>
                        <path d="M76.6652615,220.501184 L93.8817705,232.757848 L100.932438,242 L102,236.505937 L100.227669,238.257789 L99.8249432,233.519979 L98.515661,234.814132 L97.7102103,231.071922 L96.6430731,232.126728 L95.7365162,226.43321 L93.320164,229.479215 L91.2457886,223.347733 L89.6348872,226.533147 L86.9559989,220.999194 L85.5464601,223.845743 L82.968678,219.70546 L81.8611833,221.795337 L80.249857,219.107933 L79.1423623,220.601122 L76,217 L76.6652615,220.501184" id="Fill-30" fill="#1A1918"></path>
                        <path d="M87,198.49769 L107.588933,210.89232 L113.052038,224 L115,218.527882 L112.698363,219.21536 L113.052038,214.252138 L111.104499,215.142918 L111.104499,208.958176 L109.005325,211.070476 L106.526215,202.39155 L104.427041,206.10768 L100.557378,200.253678 L98.2553172,202.570132 L95.8020452,197.072868 L93.8545064,199.032158 L91.9323813,196.181662 L90.8700874,197.785066 L87.177049,193 L87,198.49769" id="Fill-31" fill="#1A1918"></path>
                        <path d="M103,174.344873 L117,187 L114.471149,179.35341 L112.896068,181.508847 L111.320555,176.284436 L108.679013,178.814551 L108.004163,174.775795 L106.541342,176.284436 L105.024981,173 L103,174.344873" id="Fill-32" fill="#1A1918"></path>
                        <path d="M154.354856,224 C144.277571,235.72143 141.555462,251.054904 146.18936,270 L153.745144,261.295074 L148.443801,262.945463 L154.354856,256.530331 L148.037188,254.673274 L152.932747,249.887864 L148.6469,245.535612 L154.557955,242.853572 L149.053514,239.12048 L155.390287,234.767806 L151.104441,231.879942 L156,228.765165 L152.526549,228.146006 L154.354856,224" id="Fill-33" fill="#1A1918"></path>
                        <path d="M232.397321,11 L215.80148,13.1720971 L212,18.1204623 L230.259437,26 L222.351548,19.3451097 L237.115279,23.5176646 L229.648734,17.6548903 L240.45852,20.5860629 L233.29775,15.3274595 L254,22.1376834 L232.397321,11" id="Fill-34" fill="#1A1918"></path>
                        <path d="M159.027992,180 L196,123 L186.824803,126.736225 L189.789541,128.867011 L181.290483,133.272204 L182.64276,136.349539 L175.485792,141.155776 L177.919552,143.564144 L171.979888,148.494684 L173.602536,151.42798 L165.093715,156.636102 L167.933243,161.041294 L159.434184,165.981493 L162.940088,168.389861 L157.946934,172.126086 L161.182467,173.320401 L157,176.66524 L159.027992,180" id="Fill-35" fill="#1A1918"></path>
                        <path d="M99,278 L56,345 L58.2876427,335.40213 L59.4316752,336.534388 L63.0414985,327.301682 L64.1851088,328.433522 L67.222916,318.647221 L68.7477297,323.1633 L73.8705465,310.935751 L74.8237662,313.753862 L78.0642064,300.206041 L80.1492161,304.53369 L81.483217,297.011069 L83.3774139,298.885352 L84.9022276,292.306141 L86.4274635,293.816096 L87.3684407,286.84707 L89.846474,287.979328 L92.1218744,281.953711 L99,278" id="Fill-36" fill="#1A1918"></path>
                        <path d="M120,276.35691 C124.83177,288.814234 132.165387,295.028564 142,294.999901 L133.799099,292.272728 L136.552875,289.545133 L130.682322,287.926532 L133.799099,286.098441 L126.294408,285.049301 L130.470395,279.444475 L126.082481,280.703106 L127.777047,276.35691 L122.118421,273 L120,276.35691" id="Fill-37" fill="#1A1918"></path>
                        <path d="M197,70 L201.157726,82.4323066 L211.043665,86 L203.393186,79.1529586 L213,81.9275961 L202.414608,75.5852652 L211.532543,77.0989732 L197,70" id="Fill-38" fill="#1A1918"></path>
                        <path d="M121.312664,181 C117.448408,188.506803 121.952518,196.464536 137,199 L125.858386,193.037471 L128.648116,193.037471 L124.009691,190.047657 L125.950677,189.472348 L122.253698,186.883884 L124.009691,186.003396 L121.312664,183.702158 L123.270542,181.575309 L121.312664,181" id="Fill-39" fill="#1A1918"></path>
                    </g>
                </g>
            </g>
        </g>
    </g>
</svg>