<?xml version="1.0" encoding="UTF-8" standalone="no"?>
<svg width="54px" height="69px" viewBox="0 0 54 69" version="1.1" xmlns="http://www.w3.org/2000/svg" xmlns:xlink="http://www.w3.org/1999/xlink" xmlns:sketch="http://www.bohemiancoding.com/sketch/ns">
    <!-- Generator: Sketch Beta 3.4 (15009) - http://www.bohemiancoding.com/sketch -->
    <title>Yelp Logo</title>
    <desc>Created with Sketch Beta.</desc>
    <defs></defs>
    <g id="WireFrame-Storyboard" stroke="none" stroke-width="1" fill="none" fill-rule="evenodd" sketch:type="MSPage">
        <g id="Desktop-Landing" sketch:type="MSArtboardGroup" transform="translate(-331.000000, -720.000000)" fill="#424242">
            <g id="Landing-Page-Content" sketch:type="MSLayerGroup" transform="translate(112.000000, 241.000000)">
                <g id="Group" sketch:type="MSShapeGroup">
                    <g id="Yelp-Logo" transform="translate(219.000000, 479.000000)">
                        <path d="M26.7976781,26.826985 C26.8649059,27.684979 26.9564838,28.5416128 26.9945972,29.4009669 C27.0710886,31.1398057 26.3321128,32.3851756 24.9854408,32.8484488 C23.7123486,33.2864229 22.397967,32.7709192 21.4853638,31.3563445 C16.5192458,23.6588816 11.5626562,15.955162 6.62962274,8.23539244 C5.5174537,6.49492144 5.88058933,5.11326277 7.70394309,4.07055797 C11.1269993,2.1132762 14.8388172,1.01970111 18.6880019,0.40708144 C19.9902084,0.200063868 21.3125303,0.113829216 22.6287646,0.014264917 C24.4235334,-0.121479851 25.4113046,0.710942975 25.5190278,2.53900879 C25.878458,8.64262674 26.2013628,14.7481489 26.5356488,20.8531271 C26.6444307,22.8430529 26.7452723,24.8332507 26.8495546,26.8231765 C26.8323507,26.8245367 26.8148821,26.8256248 26.7976781,26.826985" id="legs"></path>
                        <path d="M36.1442234,45 C36.8306828,45.1674225 37.5297501,45.2963723 38.2019922,45.5086353 C42.5240846,46.874548 46.8413484,48.2550538 51.1578075,49.6384782 C54.0152385,50.5541279 54.8095356,52.1654697 53.1227608,54.6192305 C51.1776582,57.4484315 48.9793249,60.1502747 46.5934826,62.6271191 C44.5593201,64.7388711 42.717495,64.3549403 41.1350705,61.8844638 C38.6062494,57.9369019 36.0983521,53.9755428 33.6416911,49.9839363 C32.1362552,47.5381353 33.4045554,45.1130301 36.1442234,45" id="legs"></path>
                        <path d="M32,35.8417285 C32.3051088,35.1952076 32.5148197,34.4771897 32.9301295,33.9138048 C36.0067115,29.7409322 39.1118033,25.5888437 42.2347137,21.4511653 C43.5861838,19.6606932 45.016604,19.5060602 46.6112291,21.1042111 C49.3097833,23.808625 51.5850779,26.8541735 53.3101898,30.2943408 C53.514418,30.7017072 53.6745111,31.1406652 53.7926619,31.5821174 C54.3576477,33.6932173 53.8028048,34.7634547 51.6977461,35.2705842 C46.4790975,36.5278775 41.2494837,37.7422173 36.0108235,38.9122178 C33.9309849,39.3766709 32.1798305,37.9464547 32,35.8417285" id="legs"></path>
                        <path d="M0.702636438,34.4067684 C1.0392719,32.384036 2.22350262,31.6998108 4.2499894,32.1169124 C4.8960305,32.2500802 5.53966897,32.4397195 6.15127234,32.6839919 C10.3355898,34.354762 14.5159029,36.0357758 18.6874063,37.7370143 C20.7050834,38.5599231 21.5233131,40.1311457 20.6572977,41.744919 C20.3206622,42.3724099 19.6281702,43.0156604 18.956768,43.2362934 C14.2126373,44.7954338 9.4503533,46.3083462 4.65550032,47.7091035 C1.85509901,48.5270218 0.500548374,47.6366098 0.110254122,44.8287914 C-0.0678076198,43.5470183 0.0800877399,42.2213814 0.0800877399,40.9157064 C0.0533918266,40.9122918 0.0266959133,40.9091399 0,40.905988 C0.224245672,38.7380055 0.345445118,36.5534755 0.702636438,34.4067684 Z" id="legs"></path>
                        <path d="M26.8195505,59.0484894 C26.8195505,61.418394 26.8426506,63.7882987 26.812988,66.1579345 C26.783588,68.4966562 25.9979237,69.2533806 23.7328063,68.9283789 C19.9530604,68.3861718 16.32399,67.2837468 12.9889201,65.3426078 C10.6398025,63.9753964 10.3909519,62.3404418 12.1397308,60.2382804 C15.1403749,56.630735 18.1559815,53.0363617 21.1747381,49.4446766 C22.273828,48.1368741 23.5556184,47.717786 24.8888588,48.1841862 C26.2381118,48.6559628 26.9568383,49.7446781 26.9817759,51.5376981 C27.0166885,54.0409368 26.9907009,56.5449819 26.9907009,59.0484894 L26.8195505,59.0484894" id="legs"></path>
                    </g>
                </g>
            </g>
        </g>
    </g>
</svg>